<?xml version="1.0" encoding="UTF-8"?>
<svg xmlns="http://www.w3.org/2000/svg" xmlns:xlink="http://www.w3.org/1999/xlink" version="1.2" >
<font id="NISCRIPT Regular">
<font-face  font-family="NISCRIPT" units-per-em="1000" ascent="800" descent="-200" font-style="normal" font-weight="400" font-stretch="normal" slope="-3.40001" cap-height="750" x-height="500" underline-position="-150" underline-thickness="50" />
<missing-glyph  horiz-adv-x="364" d="" />
<glyph glyph-name="space" unicode="&#x20;" horiz-adv-x="250" d="" />
<glyph glyph-name="A" unicode="A" horiz-adv-x="567" d="M312 500 Q291 530 287 530 Q282 530 237 413 Q223 376 208 350 Q194 326 194 322 Q194 315 214 315 Q235 315 251 316 Q397 321 397 333 Q397 342 364 406.5 Q331 471 312 500 Z M270 580 Q274 583 280 583 Q299 583 339 526 Q353 505 387.5 441 Q422 377 436 344 Q443 327 453 326 Q462 324 468.5 319 Q475 314 475 308 Q475 304 467 294 Q461 288 461 283 Q461 275 490 211 Q513 161 513 152 Q513 147 508 142 Q502 136 496 136 Q484 136 464 175 Q441 224 433 245 Q418 281 414 285 Q410 289 399 289 Q388 289 363 286 Q285 280 245 279 Q178 277 168 274 Q159 269 109 176 Q83 127 74 126 Q55 123 55 144 Q55 167 130 291 Q190 390 213 456 Q255 572 270 580 Z " />
<glyph glyph-name="B" unicode="B" horiz-adv-x="404" d="M58 617 Q63 622 89 622 Q142 622 165 615 Q189 609 194 609 Q205 607 234.5 596.5 Q264 586 273 580 Q301 560 301 529 L301 524 Q300 504 284 475 Q269 447 269 446 Q269 442 284 435 Q321 417 340 384 Q351 364 351 329 Q351 295 338 267 Q308 204 244.5 163.5 Q181 123 108 120 L94 120 Q77 120 73 126 Q68 134 68 138 Q68 158 104 158 Q179 158 247 213.5 Q315 269 315 329 Q315 331 314.5 334.5 Q314 338 314 340 Q310 373 279 394 Q258 408 241 408 Q232 408 225 404 Q180 373 145 373 Q126 373 126 391 Q126 401 130.5 404.5 Q135 408 150 411 Q206 421 247 486 Q264 513 264 527 Q264 536 258 543 Q247 555 192.5 570 Q138 585 111 585 Q100 585 99 582 L99 573 Q99 563 101 499 Q108 356 108 346 Q110 304 110 292 Q110 271 108 267 Q104 258 95 258 Q88 258 81.5 264.5 Q75 271 74 281 Q71 302 68 413 Q63 559 55 599 Q52 610 58 617 Z " />
<glyph glyph-name="C" unicode="C" horiz-adv-x="488" d="M264 614 Q279 620 290 620 Q309 620 309 603 Q309 588 290 584 Q278 581 248 564.5 Q218 548 202 536 Q159 503 128 438 Q91 359 88 314 Q87 308 87 300 Q87 288 95 272 Q115 231 165 205 Q218 177 297 174 Q310 173 327 173 Q350 173 375 180 Q412 190 420 190 Q425 190 428 187 Q433 183 433 174 Q433 162 426 158 Q393 137 308 137 Q288 137 278 138 Q208 145 158 169 Q97 197 66 248 Q57 263 55.5 270.5 Q54 278 54 308 Q54 347 67 385 Q96 469 132 517 Q153 545 190.5 572.5 Q228 600 264 614 Z " />
<glyph glyph-name="D" unicode="D" horiz-adv-x="451" d="M207 584 Q191 593 166 595 Q162 595 156.5 595.5 Q151 596 149 596 Q136 596 134 577 Q132 558 130 461 Q129 406 125 270 Q125 264 124.5 253.5 Q124 243 124 239 Q124 192 135 192 L136 192 L138 193 Q165 203 233 254 Q266 278 304 316.5 Q342 355 350 372 Q359 390 359 412 Q359 431 351 449 Q338 473 287 521.5 Q236 570 207 584 Z M122 629 Q134 632 156 632 Q185 632 203 627 Q241 614 304 557 Q370 497 387 462 Q397 440 397 405 Q397 390 394 379 Q383 341 323.5 282 Q264 223 188 177 Q151 155 147 155 Q141 155 135 147 Q128 139 97 138 Q66 138 60 145 Q56 150 56 157 Q56 172 71 173 Q80 174 85 177 Q87 179 89 269 Q96 584 100 602 Q102 616 106.5 621 Q111 626 122 629 Z " />
<glyph glyph-name="E" unicode="E" horiz-adv-x="403" d="M55 635 Q58 638 72 638 Q89 638 103 637 Q144 635 231 624 Q318 613 323 609 Q328 604 328 596 Q328 584 322 580 Q318 578 310 578 Q300 578 223 587 Q137 598 113 598 L109 598 L89 597 Q88 571 88 519.5 Q88 468 87 442 L97 438 Q111 433 174 430 Q226 427 240.5 423.5 Q255 420 255 409 Q255 404 247 396 Q242 391 226 391 Q225 391 179 393 Q165 393 147 394 Q129 395 117.5 395.5 Q106 396 103 396 L89 396 L88 285 L88 234 Q88 172 91 169 Q95 164 128 164 Q161 164 231.5 172 Q302 180 316 185 Q331 190 338 186 Q348 180 348 170 Q348 159 337 150 Q331 145 251.5 136.5 Q172 128 130 128 Q83 128 81 124 Q79 120 69 120.5 Q59 121 55 125 Q50 130 50 380 Q50 630 55 635 Z " />
<glyph glyph-name="F" unicode="F" horiz-adv-x="388" d="M63 605 Q69 612 89 612 Q108 612 123 611 Q217 608 245 607 Q313 605 322 600 Q332 595 332 584 Q332 576 326 571 Q322 567 304 567 L250 569 Q236 569 211.5 570 Q187 571 169 571.5 Q151 572 141 572 L101 572 L103 548 Q107 486 108 469 Q110 415 112 413 L119 413 Q127 413 179 415 Q225 417 229 417 Q246 417 251 414 Q256 411 256 402 Q256 390 243 386 Q230 382 181 378 Q116 374 114 373 Q109 371 109 359 Q109 353 101 283 Q92 206 91 179 Q89 139 82 134 Q69 125 58 136 Q51 143 51 156 Q51 170 60 248 Q74 366 74 423 Q74 477 63 551 Q58 589 58 593 Q58 600 63 605 Z " />
<glyph glyph-name="G" unicode="G" horiz-adv-x="420" d="M265 599 Q297 605 321 605 Q348 605 358 596 Q365 589 366 586.5 Q367 584 363 577 Q359 569 353 567.5 Q347 566 322 566 Q232 564 180 528 Q157 512 134 474.5 Q111 437 98 393 Q89 364 89 325 Q89 292 96 275 Q103 258 122 233.5 Q141 209 153 201 Q185 179 227 172 Q242 169 247 169 Q254 169 261 176 Q273 187 290 228 Q307 269 309 289 L309 299 L254 299 Q199 299 191 306 Q175 320 190 332 Q198 338 218 336 L231 336 Q248 336 286 338 Q308 341 323 341 Q353 341 353 319 Q353 310 346 278 Q322 180 286 145 Q274 134 250 133 L241 133 Q187 133 138 166.5 Q89 200 63 256 Q53 277 53 327 Q53 369 58.5 394 Q64 419 82 457 Q112 523 153 554.5 Q194 586 265 599 Z " />
<glyph glyph-name="H" unicode="H" horiz-adv-x="452" d="M327 611 Q333 618 341 618 Q350 618 356 611 Q361 606 362 590 Q363 574 365 497 L367 390 L378 389 Q389 387 394 384 Q398 381 398 374 Q398 366 392 359 Q386 352 378 352 Q371 352 366 347 Q363 343 358 261 Q354 177 350 173 Q347 169 335 169 Q325 169 321.5 174.5 Q318 180 318 201 Q318 220 321 262 Q322 283 322 317 Q322 341 321 342 Q320 343 294 343 Q110 343 98 336 Q94 332 94 266 Q94 207 98 171 Q100 155 100 152 Q100 132 83 132 Q72 132 66 142 Q59 152 58 242 Q56 336 53 342 Q50 351 55 366 Q60 379 64 485 Q68 591 72 596 Q74 601 86 601 Q98 601 101 596 Q103 592 103 564 Q103 539 101 475 Q99 411 99 394 Q99 379 100 378 Q101 377 126 377 Q170 377 242 380 Q314 383 320 385 Q326 388 327 400 Q328 412 328 479 Q328 573 325 586 Q322 603 327 611 Z " />
<glyph glyph-name="I" unicode="I" horiz-adv-x="162" d="M71 545 Q75 669 81 675 Q87 681 96 681 Q106 681 109 675 Q111 671 111 642 Q111 527 99 365 Q92 270 88 192 Q84 111 81 108 Q77 104 67.5 104 Q58 104 54 109 Q51 112 51 147 Q51 226 61 337 Q67 407 71 545 Z " />
<glyph glyph-name="J" unicode="J" horiz-adv-x="430" d="M349 612 Q362 622 374 609 Q380 602 380 539 Q380 479 379 431 Q378 261 371 217 Q356 115 323 76 Q287 31 203 31 Q118 31 75 77 Q56 97 56 121 Q56 139 68 148 Q76 155 87 155 Q104 155 104 141 Q104 135 100 130 Q96 125 96 119 Q96 107 116 93 Q147 71 199 71 L210 71 Q249 72 268 82 Q312 105 328 187.5 Q344 270 344 472 L344 546 Q344 608 349 612 Z " />
<glyph glyph-name="K" unicode="K" horiz-adv-x="422" d="M74 629 Q84 637 95 628 L104 621 L104 496 L105 373 L140 371 L175 370 L187 386 Q190 390 198 401 Q206 412 219 429.5 Q232 447 241 459 Q288 523 312 548.5 Q336 574 350 574 Q355 574 357 573 Q366 568 366 562 Q366 551 339 521 Q318 499 274 439 Q230 379 230 372 Q230 367 260 362 Q290 357 306 326 Q316 307 327.5 240 Q339 173 339 138 Q339 128 337 122 Q332 114 321 114 Q313 114 308 119 Q303 126 300 163 Q291 265 275 303 Q266 320 258 323 Q229 334 131 334 Q102 334 101 331 Q97 323 92 246 Q88 199 88 176 Q88 160 91 152 Q96 139 89 132 Q83 126 73 126 Q63 126 57 132 Q51 138 51 169 Q51 202 60 318 Q68 423 68 495 L68 529 L68 586 Q68 624 74 629 Z " />
<glyph glyph-name="L" unicode="L" horiz-adv-x="475" d="M58 664 Q66 670 68.5 670.5 Q71 671 78 666 Q90 658 97 560 Q100 515 100 471 Q100 404 93 289 Q88 204 88 178 Q88 163 89 162 Q91 160 105 160 Q150 160 333 182 Q399 190 402 190 Q407 190 413 186 Q426 174 414 162 Q407 155 301 142 Q195 129 118 126 Q111 126 100 125.5 Q89 125 86 125 Q62 125 56 129.5 Q50 134 50 148 Q50 179 58 304 Q65 409 65 470 Q65 539 54 627 Q51 646 51 652 Q51 658 58 664 Z " />
<glyph glyph-name="M" unicode="M" horiz-adv-x="604" d="M447 602 Q466 616 476 616 L481 616 Q494 615 500.5 606.5 Q507 598 514 571 Q527 519 548 260 Q552 217 552 202 Q552 191 548 188 Q534 177 524 190 Q517 197 506 346 Q496 481 484 542 Q478 571 470 571 Q464 571 448 555 Q434 541 408 507.5 Q382 474 370 455 Q360 440 350 410 Q342 386 337.5 380 Q333 374 324 374 Q315 374 306.5 384 Q298 394 266 442 Q210 526 196 526 L195 526 Q189 524 163.5 444.5 Q138 365 126 312 Q106 224 103 213 Q93 175 90 154 Q85 129 77 126 Q70 123 61 130 Q55 136 55 149 Q55 170 69 227 Q77 258 95 338 Q104 377 128.5 452.5 Q153 528 165 552 Q178 577 192 577 Q196 577 198 576 Q208 574 234 544.5 Q260 515 284 479 Q312 436 316 436 Q320 436 331 459 Q340 476 368.5 515.5 Q397 555 414 573 Q425 584 447 602 Z " />
<glyph glyph-name="N" unicode="N" horiz-adv-x="456" d="M369 686 Q372 691 379 691 Q389 691 396 681 Q400 676 400 655 Q400 626 390 549 Q367 379 328 215 Q317 168 309 151.5 Q301 135 290 135 Q285 135 279 138 Q273 140 254 168.5 Q235 197 225 219 Q215 242 191 322 Q166 403 143 459 Q120 515 111 515 Q106 515 104 504 Q99 479 93 161 Q93 133 86 125 Q79 118 67 118 Q59 118 55 122 Q51 126 51 146 Q51 159 55 183 Q57 193 61 347 Q64 491 71.5 534 Q79 577 102 577 Q126 577 159 513.5 Q192 450 226 336 Q267 201 281 201 Q285 201 303.5 279 Q322 357 333 424 Q354 543 363 649 Q365 680 369 686 Z " />
<glyph glyph-name="O" unicode="O" horiz-adv-x="514" d="M353 570 Q344 574 325 574 Q303 574 292 569 Q279 564 262 549 Q248 536 240 536 Q239 536 225 540 Q219 542 215 534 Q212 526 195 526 Q163 526 130 472 Q93 412 90 338 L90 318 Q90 187 164 164 Q179 159 209 159 Q244 159 262 166 Q293 177 330 208 Q367 239 387 270 Q424 329 424 418 Q424 444 420 461 Q412 498 392.5 529.5 Q373 561 353 570 Z M286 608 Q301 611 325 611 Q376 611 407 576 Q443 534 456 474 Q462 448 462 417 Q462 352 443 303 Q434 281 434 276 Q432 262 399 224.5 Q366 187 337 164 Q276 120 214 120 Q204 120 184 122 Q127 129 98.5 159.5 Q70 190 58 249 Q53 276 53 321 Q53 356 57 388 Q70 472 134 537 Q167 571 185 571 Q196 571 206 562 Q224 547 224 562 Q224 570 245.5 586 Q267 602 286 608 Z " />
<glyph glyph-name="P" unicode="P" horiz-adv-x="370" d="M211 588 Q192 596 145 596 Q96 596 90 588 Q89 587 89 579 Q89 570 92 547 Q98 505 100 432 Q102 352 107 352 Q115 352 154.5 374 Q194 396 214 411 Q279 460 279 502 Q279 503 278.5 505.5 Q278 508 278 509 Q274 530 253.5 554 Q233 578 211 588 Z M53 553 Q51 563 51 580 Q51 614 70.5 623 Q90 632 137 632 L157 632 Q193 631 204.5 629 Q216 627 233 619 Q280 596 304 549 Q315 527 315 500 Q315 475 306 457 Q289 422 242 384.5 Q195 347 131 319 L99 305 L93 240 Q88 190 88 162 L88 154 Q89 149 89 141 Q89 122 69 122 Q57 122 53 129 Q50 135 50 159 Q50 184 55 241 Q63 310 63 398 Q63 492 53 553 Z " />
<glyph glyph-name="Q" unicode="Q" horiz-adv-x="534" d="M172 583 Q181 586 188 586 Q204 586 208 573 Q209 570 209 565 Q209 552 194 549 Q177 545 153.5 505.5 Q130 466 110 409 Q88 338 88 284 L88 271 Q91 219 123.5 184.5 Q156 150 207 146 L218 146 Q239 146 254 151 Q273 156 293.5 167 Q314 178 314 183 Q314 188 303 199 Q288 213 261 245 Q234 277 234 281 Q234 286 240.5 292.5 Q247 299 253 299 Q261 299 302 255 Q344 211 347 211 Q351 211 368 236 Q385 261 396 281 Q423 334 423 398 Q423 437 412 459 Q379 527 308 527 Q258 527 231 497 Q219 485 213 485 Q208 485 201 492 Q194 499 194 504 Q194 509 202 522 Q215 541 245.5 553 Q276 565 310 565 Q337 565 358 558 Q416 540 446 474 Q458 449 459 408 L459 390 Q459 325 431 268 Q415 233 394 206 L375 181 L426 132 Q478 81 478 71 Q478 65 469 59 Q460 53 450 60 Q440 65 394 111 L348 157 L325 142 Q280 112 230 109 L218 109 Q113 109 67 203 L53 231 L53 285 Q53 359 76 428 Q96 485 123.5 530 Q151 575 172 583 Z " />
<glyph glyph-name="R" unicode="R" horiz-adv-x="405" d="M66 640 Q79 663 125 663 L139 663 Q169 661 191 650.5 Q213 640 241 612 Q290 563 290 522 Q290 504 284 492 Q274 470 239 446 L230 439 L243 423 Q273 387 295 303 Q316 218 334 191 Q350 167 350 162 Q350 158 347 154 Q342 146 335 146 Q320 146 299 184 Q283 215 262 292 Q248 345 235.5 370.5 Q223 396 206 410 L195 419 L174 414 Q157 409 139 409 Q112 409 112 426 Q112 434 118 437 Q124 440 141 442 Q177 445 217 472.5 Q257 500 257 521 Q257 548 224 582 Q191 616 156 627 Q144 631 132 631 Q124 631 120 630 L102 627 L102 507 Q102 387 91 243 Q87 183 83 167.5 Q79 152 68 152 Q61 152 55 158 Q49 164 53 184 Q56 201 58 251 Q60 303 65 346 Q70 399 70 505 Q70 596 66 612 Q62 633 66 640 Z " />
<glyph glyph-name="S" unicode="S" horiz-adv-x="503" d="M197 653 Q212 660 238 660 L268 660 Q327 659 369.5 647.5 Q412 636 419 621 Q421 615 421 612 Q421 605 416 600 Q411 595 404 595 Q396 595 391 600 Q381 608 334 617 Q287 626 253 626 L245 626 Q198 623 160 584 Q124 546 124 510 Q124 500 129 488 Q135 476 154.5 459.5 Q174 443 192 435 Q206 428 269 409 Q340 389 371.5 373.5 Q403 358 425 333 Q449 306 449 271 Q449 247 438 229 Q415 192 365 167 Q290 131 183 131 Q126 131 91 144 Q55 157 55 180 Q55 208 86 212 Q98 214 106 206 Q114 198 112 193 Q107 182 108 178.5 Q109 175 116 173 Q141 167 181 167 Q246 167 292 179 Q334 190 373 214.5 Q412 239 412 271 Q412 293 391 315 Q375 332 348.5 344 Q322 356 264 373 Q200 392 174 404 Q120 431 99 465 Q88 483 88 508 Q88 549 118.5 591 Q149 633 197 653 Z " />
<glyph glyph-name="T" unicode="T" horiz-adv-x="541" d="M271 626 Q277 628 375 628 Q417 628 437 627.5 Q457 627 469 625 Q481 623 483 620 Q485 617 485 610 Q485 598 471.5 595.5 Q458 593 392 591 L311 590 L310 489 Q309 384 301 316 Q293 236 293 178 Q292 127 289.5 114.5 Q287 102 277 102 Q270 102 263 109 Q256 116 256 168 Q256 229 264 311 Q275 428 275 502 Q275 531 274 544 L272 586 L246 587 L238 587 Q172 587 98 575 Q93 574 87.5 573 Q82 572 78.5 571.5 Q75 571 73 571 Q67 571 61 577 Q56 582 56 589 Q56 600 65 605 Q87 617 208 621 Q261 623 271 626 Z " />
<glyph glyph-name="U" unicode="U" horiz-adv-x="458" d="M348 614 Q348 622 352 626 Q356 630 367 630 Q389 630 396.5 610 Q404 590 404 534 Q403 417 356 298 Q309 179 259 153 Q244 146 225 146 L205 146 Q168 147 149 157 Q115 173 90 210 Q65 247 57 292 Q52 316 52 388 Q52 459 56 524 Q59 576 61 588 Q63 600 69 604 Q78 610 87 603 L97 597 L94 534 Q90 466 90 393 Q90 314 97 288 Q108 242 136 212 Q164 182 215 182 Q225 182 229 183 Q283 194 336 357 Q353 410 358.5 441.5 Q364 473 364 526 Q364 574 363 583 Q362 592 356 596 Q348 602 348 614 Z " />
<glyph glyph-name="V" unicode="V" horiz-adv-x="532" d="M425 649 Q446 671 457 671 Q463 671 469 665 Q475 660 475 655 Q475 648 455 627 Q414 585 369 507 Q334 447 288 343.5 Q242 240 225 181 Q214 147 211 142 Q206 137 196.5 137.5 Q187 138 184 143 Q178 154 153 306 Q131 439 109 498 Q86 561 64 587 Q56 597 56 605 Q56 615 67 620 Q70 621 74 621 Q89 621 108 588 Q139 535 160.5 448.5 Q182 362 191 304 Q200 246 204 246 Q209 246 231 302 Q331 546 425 649 Z " />
<glyph glyph-name="W" unicode="W" horiz-adv-x="644" d="M558 630 Q564 636 571 636 Q588 636 588 617 Q588 589 517 327 Q480 188 459.5 136 Q439 84 419 84 Q410 84 396 96 Q375 114 354 182 Q300 351 293 351 Q281 351 240 225 Q213 143 212 142 Q209 136 196 136 Q182 136 174 150 Q159 171 141 259 Q119 365 85 483 Q68 541 60 579 Q56 595 56 607 Q56 623 73 624 Q85 625 89 613 Q96 597 104 561 Q110 533 139 423.5 Q168 314 176 279 Q188 220 193 220 Q197 220 216 272 Q256 386 278 408 Q290 420 305 415 Q318 410 361 280 Q409 136 414 136 Q431 136 515 473 Q554 624 558 630 Z " />
<glyph glyph-name="X" unicode="X" horiz-adv-x="519" d="M64 646 Q72 650 75 650 Q84 650 103 631 Q133 600 170 533.5 Q207 467 231.5 418 Q256 369 263 369 Q267 369 308 416 Q349 463 349 467 Q349 471 391 515 Q434 559 443 559 Q454 559 458 555 Q462 551 462 546 Q462 534 431 502 Q408 477 377 439 Q346 401 322 375 Q285 332 285 326 Q285 312 387 175 Q433 113 433 104 Q433 97 427.5 91.5 Q422 86 415 86 Q412 86 410 87 Q402 91 365 140 Q328 189 292 243 Q257 296 254 296 Q248 290 205 242 Q132 159 113 140 Q94 121 84 121 Q64 121 64 137 Q64 144 104 186 Q143 228 187.5 279.5 Q232 331 232 334 Q232 338 205 388 Q155 481 150 491 Q110 568 76 604 Q57 626 57 635 Q57 641 64 646 Z " />
<glyph glyph-name="Y" unicode="Y" horiz-adv-x="537" d="M62 611 Q66 617 73 617 Q79 617 96 606 Q164 559 253 506 Q313 470 332 454 Q344 442 347 442 Q349 442 381.5 487.5 Q414 533 429 557 Q443 578 443 586 Q443 595 449 600.5 Q455 606 463 606 Q472 606 478 597 Q481 591 481 585 Q481 562 409 460 Q340 363 212 218 Q121 115 121 107 Q121 96 111 88.5 Q101 81 90 81 Q78 81 74 90 Q69 98 71 107 Q76 122 197.5 260 Q319 398 319 406 Q319 422 241 468 Q206 488 131 537 Q79 571 77 572 Q56 584 56 597 Q56 604 62 611 Z " />
<glyph glyph-name="Z" unicode="Z" horiz-adv-x="671" d="M120 684 Q126 690 138 690 Q147 690 167 685 Q202 675 285 662.5 Q368 650 431 645 Q460 643 471.5 637 Q483 631 483 618 Q483 600 454 568 Q385 486 331 419 Q197 254 163 210.5 Q129 167 129 160 Q129 158 132 158 Q136 158 139 159 Q203 175 363.5 201.5 Q524 228 573 230 L592 230 Q607 230 612 222 Q619 212 613 203 Q607 194 587 194 Q564 194 545 191 Q326 161 100 112 Q96 111 92 110.5 Q88 110 85.5 109.5 Q83 109 80.5 108.5 Q78 108 76 108 Q73 108 65 112 Q57 117 57 124 Q57 134 75 158.5 Q93 183 152 257 Q312 456 407 572 Q428 596 428 601 Q428 610 396 610 Q369 610 283.5 624 Q198 638 152 650 Q114 659 114 671 Q114 676 120 684 Z " />
<glyph glyph-name="a" unicode="a" horiz-adv-x="415" d="M141 440 Q165 444 178 444 Q226 444 271 417 Q319 390 340.5 359.5 Q362 329 362 288 Q362 258 350 234 Q334 203 300 171 Q266 139 235 127 Q222 122 201 122 Q170 122 156 132 Q132 148 132 181 Q132 233 212 273 Q252 293 271 293 Q290 293 290 276 Q290 266 285.5 262 Q281 258 265 254 Q231 245 200.5 221 Q170 197 170 180 Q170 159 196 159 Q218 159 242 174 Q260 185 284.5 211 Q309 237 317 253 Q325 272 325 288 Q325 348 240 390 Q210 405 183 405 Q130 405 98 372 Q80 352 74 352 Q67 352 61.5 359.5 Q56 367 56 375 Q56 391 84.5 413 Q113 435 141 440 Z " />
<glyph glyph-name="b" unicode="b" horiz-adv-x="331" d="M186 307 Q168 312 150 312 Q114 312 107 300 Q105 297 100.5 245 Q96 193 96 172 Q96 170 96 168 L97 165 Q98 162 119 162 Q156 162 173 168 Q189 173 207 189.5 Q225 206 232 220 Q239 236 239 248 Q239 264 231 277 Q217 298 186 307 Z M56 563 Q51 575 51 580 Q51 594 72 594 Q84 594 90 583 Q107 550 108 430 L109 348 L152 348 Q192 347 212.5 339 Q233 331 253 309 Q278 281 278 248 Q278 220 260 191 Q215 122 133 122 Q130 122 126 122.5 Q122 123 119 123 Q69 128 62 138 Q58 142 58 159 Q58 188 63 250 Q69 337 69 412 Q69 537 56 563 Z " />
<glyph glyph-name="c" unicode="c" horiz-adv-x="377" d="M195 410 Q200 411 210 411 Q229 411 237 404 Q243 400 243 389 Q243 378 236 372 Q228 365 216 370 Q204 374 188 366 Q168 355 142 328.5 Q116 302 106 281 Q93 256 93 236 Q93 206 132 188 Q176 169 241 169 Q270 169 290 175 L310 181 L317 173 Q323 164 323 161 Q323 158 316 149 Q302 132 238 132 Q163 132 115 154 Q54 182 54 234 Q54 240 56 256 Q66 305 115 356 Q163 404 195 410 Z " />
<glyph glyph-name="d" unicode="d" horiz-adv-x="322" d="M227 259 Q227 263 198 263 Q118 263 97 218 Q91 204 91 199 Q91 192 93 187 Q100 157 132 157 Q152 157 182.5 163 Q213 169 216 173 Q219 176 223 213.5 Q227 251 227 259 Z M228 549 Q228 558 235 564 Q242 570 246 570 Q250 570 257 564 Q265 558 269 525 Q271 510 271 459 Q271 374 264 269 Q257 164 250 150 Q243 141 238 137 Q229 131 194.5 126 Q160 121 133 121 L128 121 Q97 122 84 132 Q53 156 53 199 Q53 212 56 222 Q60 238 83 261 Q106 284 124.5 290.5 Q143 297 186 298 L230 299 L232 326 Q235 355 235 406 Q235 462 231 514 Q228 541 228 549 Z " />
<glyph glyph-name="e" unicode="e" horiz-adv-x="374" d="M230 352 Q220 358 206 358 Q188 358 166 347 Q153 340 136 327.5 Q119 315 119 312 Q119 307 135.5 302.5 Q152 298 172 298 Q195 298 204.5 301 Q214 304 226 315 Q236 324 236 339 Q236 349 230 352 Z M168 390 Q182 395 200 395 L211 395 Q274 391 274 339 Q274 294 225 268 Q207 259 172 259 Q141 259 119 266 Q99 272 98 272 Q93 272 90 250 L90 243 Q90 218 104 198.5 Q118 179 141 173 Q161 168 185 168 Q248 168 283 188 Q294 195 304 195 Q319 195 319 179 Q319 169 315 164.5 Q311 160 294 152 Q250 130 189 130 Q139 130 107 146 Q72 163 58 204 Q53 221 53 242 Q53 279 63 299 Q74 325 105.5 352.5 Q137 380 168 390 Z " />
<glyph glyph-name="f" unicode="f" horiz-adv-x="319" d="M211 617 Q232 625 241 625 Q251 625 257 619 Q263 614 263.5 605.5 Q264 597 259 593 Q254 590 239 586 Q209 578 167.5 542 Q126 506 112 475 Q96 443 96 422 Q96 418 97 417 Q100 414 129.5 410 Q159 406 180 406 Q219 406 219 386 Q219 375 212 371.5 Q205 368 185 368 L176 368 Q146 368 120 372 Q96 375 93 372 Q90 369 88 255.5 Q86 142 83 139 Q80 134 70 134 Q58 134 54 140 Q51 144 51 216 L51 282 Q52 395 57 428.5 Q62 462 81 498 Q98 530 137.5 566.5 Q177 603 211 617 Z " />
<glyph glyph-name="g" unicode="g" horiz-adv-x="402" d="M288 317 Q281 321 257 321 Q225 321 207 300 Q200 293 191 293 Q175 293 175 307 Q175 315 170.5 316.5 Q166 318 161 312 Q157 307 157 285 L157 268 Q160 213 186 192 Q206 175 235 175 Q262 175 283 191 Q289 196 289 210 L289 229 L289 241 Q289 258 292 263.5 Q295 269 305 271 Q312 272 312 281 Q312 290 305 301 Q298 312 288 317 Z M230 358 Q244 360 256 360 Q290 360 301 354 Q351 329 351 268 Q351 221 337 199 Q334 193 334 120 Q334 66 333 53 Q332 40 326 29 Q298 -22 223 -49 Q201 -57 153 -57 Q115 -57 98.5 -53.5 Q82 -50 69 -39 Q58 -30 58 -19 Q58 -12 64 -4 Q70 3 78 3 Q88 3 96 -6 Q108 -21 146 -21 Q178 -21 213.5 -9.5 Q249 2 271 21 Q288 36 294 53 Q300 70 300 106 Q300 133 299 141 Q298 149 292 149 Q288 149 276 144 Q261 139 238 139 Q212 139 194 145 Q154 158 133 199 Q122 220 121 262 L121 280 Q121 327 138 347 Q148 359 163 359 Q173 359 181 351 Q191 340 206 349 Q216 355 230 358 Z " />
<glyph glyph-name="h" unicode="h" horiz-adv-x="291" d="M53 554 Q49 570 53 578 Q57 586 68 586 Q79 586 84 578 Q96 557 100 461 L102 397 L141 399 Q151 400 164 400 Q181 400 196 392 Q230 374 236 317 Q240 253 240 220 L240 190 Q240 160 237 150.5 Q234 141 226 141 L222 141 Q210 143 206 161 Q202 179 200 247 Q198 331 192 343 Q181 363 152 363 Q144 363 124 359 Q108 355 104 345 Q101 339 101 298 Q101 291 101.5 271.5 Q102 252 102 240 Q103 213 103 179 Q103 145 97 139 Q93 135 85 135 Q71 135 68 146 Q65 154 65 235 Q65 314 59 321 Q54 326 54 337 Q54 348 59 356 Q64 366 64 415 Q64 512 53 554 Z " />
<glyph glyph-name="i" unicode="i" horiz-adv-x="195" d="M63 377 Q66 383 75 383 Q88 383 94 372 Q99 362 99 314 Q99 255 93 204 Q89 163 83.5 149 Q78 135 67 135 Q52 135 52 156 Q52 167 53 174 Q55 212 57 287 Q59 369 63 377 Z M115 516 Q106 522 106 532 Q106 548 123 548 Q139 548 139 531 Q139 523 132 516 Q127 512 124.5 512 Q122 512 115 516 Z " />
<glyph glyph-name="j" unicode="j" horiz-adv-x="225" d="M134 453 Q142 457 146 457 Q163 457 163 427 Q163 413 169 353 Q173 314 173 263 Q173 193 165 167 Q155 142 150 135 Q126 97 89 97 Q56 97 56 131 Q56 143 62.5 150.5 Q69 158 78 158 Q88 158 92 148 Q96 139 100 139 Q106 139 115.5 152.5 Q125 166 129 182 Q135 203 135 263 Q135 319 129 373 Q125 417 125 424 Q125 447 134 453 Z " />
<glyph glyph-name="k" unicode="k" horiz-adv-x="310" d="M53 457 Q56 464 67 464 Q79 464 84 456 Q88 451 92.5 410.5 Q97 370 97 344 Q97 333 104 333 Q115 333 218 406 Q234 418 242 415 Q249 413 253.5 406 Q258 399 256 392 Q250 377 156 318 Q146 312 135.5 305.5 Q125 299 118.5 295 Q112 291 111 290 Q110 289 110 288 Q110 283 141 251 Q209 180 222 180 Q231 180 236.5 173.5 Q242 167 242 158 Q242 148 235 141 Q228 136 222 136 Q200 136 137 199 Q102 234 98 234 Q94 234 91 186 Q88 137 83 132 Q71 118 59 132 Q54 139 54 168 Q54 197 55 220 Q56 269 56 340 Q56 404 53 427 Q50 452 53 457 Z " />
<glyph glyph-name="l" unicode="l" horiz-adv-x="138" d="M56 575 Q61 579 67 579 Q82 579 85 534.5 Q88 490 88 356 L88 329 L88 133 Q74 119 64 122 L55 125 L56 261 L56 305 Q56 420 53 474 Q50 532 50 550 Q50 570 56 575 Z " />
<glyph glyph-name="m" unicode="m" horiz-adv-x="410" d="M249 360 Q254 361 264 361 Q302 361 329 322 Q359 279 359 179 Q359 150 355 139.5 Q351 129 341 129 Q330 129 326.5 141.5 Q323 154 322 195 Q320 250 317 256 Q311 264 306 282 Q293 323 262 323 Q245 323 230 300 Q215 277 211 242 Q206 210 191 210 Q186 210 179 215 Q172 220 169 246 Q164 293 142 312 Q130 323 122 323 Q117 323 109 318 Q103 314 103 308 Q103 305 108 282 Q117 235 117 170 Q117 142 114 138 Q112 133 100 133 Q88 133 85 138 Q79 145 70 193.5 Q61 242 59 279 Q57 324 54 337 Q54 338 53.5 339 Q53 340 53 341 Q53 348 58.5 353.5 Q64 359 71 359 Q72 359 73 358.5 Q74 358 75 358 Q83 356 87 356 Q94 356 111 359 Q116 360 125 360 Q148 360 172 336 Q192 316 195 318 Q198 320 204 331 Q218 355 249 360 Z " />
<glyph glyph-name="n" unicode="n" horiz-adv-x="339" d="M149 377 Q167 384 182 384 Q200 384 214 377 Q234 367 254 336.5 Q274 306 282 274 Q287 256 287 214 Q287 173 282 163 Q274 148 263 148 Q257 148 252 153 Q244 160 248 176 Q253 196 253 214 Q253 285 212 331 Q195 348 180 348 Q156 348 141 316 Q133 299 133 277 L133 258 Q133 222 137 180 Q139 154 139 150 Q139 127 125 124 Q123 123 119 123 Q107 123 102.5 144 Q98 165 93 231 Q89 302 62 342 Q56 351 56 359 Q56 373 73 373 Q86 373 96 357 Q106 342 110 342 Q113 342 124 356 Q136 372 149 377 Z " />
<glyph glyph-name="o" unicode="o" horiz-adv-x="340" d="M79 358 Q89 369 101 369 Q112 369 118.5 363.5 Q125 358 125 350 Q125 340 113 332 Q92 321 91 255 Q91 217 99 203 Q114 175 153 175 Q223 175 245 251 Q249 263 249 275 Q249 316 198 320 Q193 321 186 321 Q177 321 167 314 Q161 309 153 309 Q145 309 139.5 314 Q134 319 134 326 Q134 332 139 339 Q153 358 192 358 Q234 358 260.5 335 Q287 312 287 271 Q287 261 286 256 Q282 223 259.5 192.5 Q237 162 207 147 Q184 137 155 137 Q93 137 70 175 Q53 201 53 239 Q53 242 53.5 251 Q54 260 54 265 Q57 334 79 358 Z " />
<glyph glyph-name="p" unicode="p" horiz-adv-x="308" d="M170 275 Q146 282 126 282 Q113 282 110 278 Q108 275 114 252 Q118 234 121 214 Q124 194 126.5 188.5 Q129 183 134 183 Q144 183 181 213.5 Q218 244 218 252 Q218 262 170 275 Z M75 316 Q93 318 112 318 Q154 318 176 313 Q255 292 255 252 Q255 236 250 228 Q243 213 208.5 185.5 Q174 158 145 143 L129 135 L132 71 Q134 9 138 -4 Q139 -7 139 -12 Q139 -21 134 -27 Q129 -33 121 -33 Q113 -33 107 -26 Q94 -13 94 92 Q94 130 88 136 Q76 146 86 164 Q88 168 88 174 Q88 194 79.5 230 Q71 266 61 283 Q54 295 54 298.5 Q54 302 59 307 Q66 314 75 316 Z " />
<glyph glyph-name="q" unicode="q" horiz-adv-x="289" d="M160 275 Q145 280 135 280 Q116 280 104 269.5 Q92 259 92 242 Q92 232 102 208 Q117 178 137 178 Q150 178 167 195 Q189 217 189 241 Q189 265 160 275 Z M107 312 Q145 316 148 316 L150 316 Q159 316 175.5 309.5 Q192 303 201 296 Q215 285 221 274 Q227 263 231 240 Q238 197 238 87 Q238 -74 226 -87 Q214 -101 201 -87 Q195 -81 195 -65 Q195 -50 198 -7 Q202 56 202 114 Q202 153 199 159 Q195 165 189 160 Q163 141 136 141 Q103 141 80 169 Q57 197 54 245 L54 258 Q54 291 66 303 Q72 309 107 312 Z " />
<glyph glyph-name="r" unicode="r" horiz-adv-x="294" d="M55 398 Q58 401 66 401 Q82 401 82 377 Q82 363 87 326.5 Q92 290 93 284 Q95 265 98 265 Q102 265 110 280 Q118 296 143.5 321 Q169 346 185 353 Q205 363 221 363 Q240 363 240 347 Q240 335 219 331 Q197 326 172 302.5 Q147 279 133 252 Q120 225 108.5 182 Q97 139 97 117 Q97 109 91.5 103 Q86 97 79 97 Q74 97 69 102 Q66 105 65 187 Q64 264 57 310 Q51 350 51 375 Q51 394 55 398 Z " />
<glyph glyph-name="s" unicode="s" horiz-adv-x="297" d="M182 428 Q198 434 208 434 Q219 434 226 427 Q233 420 233 413 Q233 400 206 394 Q164 384 164 367 Q164 359 198 315 Q226 279 235 260.5 Q244 242 244 222 Q244 189 203 148 Q137 84 81 84 Q58 84 58 100 Q58 118 85 122 Q127 128 177 177 Q207 206 207 222 Q207 240 165 294 Q135 330 129 345 Q124 358 124 368 Q124 408 182 428 Z " />
<glyph glyph-name="t" unicode="t" horiz-adv-x="393" d="M66 500 Q70 505 78.5 504 Q87 503 92 498 Q95 494 101 467.5 Q107 441 109 437 Q110 434 115 395.5 Q120 357 122 355 Q123 354 126 354 Q138 354 183 366 Q252 383 269 383 Q280 383 284 379 Q290 374 291 365.5 Q292 357 287 352 Q280 348 268 346 Q245 342 189.5 327 Q134 312 131 309 Q129 307 129 303 Q129 297 136 277 Q153 225 179.5 202 Q206 179 252 177 L270 177 Q287 177 300 185 Q315 194 325 194 Q339 194 339 176 Q339 160 316 149 Q293 138 260 138 Q251 138 233 140 Q138 153 101 262 Q94 283 90.5 287 Q87 291 78 291 Q54 291 54 313 Q54 330 74 339 Q81 343 80 359 Q73 454 63 472 Q56 487 66 500 Z " />
<glyph glyph-name="u" unicode="u" horiz-adv-x="353" d="M257 347 Q254 353 261 360 Q268 367 274 367 Q281 367 289 359 Q301 347 301 310 Q301 231 265 178 Q249 155 234 146 Q219 137 193 135 L186 135 Q142 135 115 166 Q88 197 65 273 Q54 311 54 324 Q54 342 72 342 Q90 342 90 327 Q90 316 108 265.5 Q126 215 134 202 Q152 172 188 172 Q205 172 217 181 Q227 188 239 210.5 Q251 233 256 255 Q261 278 261 310 Q261 339 257 347 Z " />
<glyph glyph-name="v" unicode="v" horiz-adv-x="378" d="M292 409 Q307 419 318 408 Q324 404 324 397 Q324 388 306 366 Q268 319 248.5 281.5 Q229 244 213 188 Q199 141 185 141 Q171 141 160 173 Q140 229 100 299 Q82 326 70 338 Q55 354 55 364 Q55 371 66 377 Q77 383 86 376 Q117 354 156 274 Q176 232 182 232 Q188 234 193 252 Q198 267 212 296 Q224 318 253.5 360.5 Q283 403 292 409 Z " />
<glyph glyph-name="w" unicode="w" horiz-adv-x="566" d="M460 450 Q480 471 490 471 Q497 471 504 465 Q510 460 510 454 Q510 446 491 426 Q469 402 432 327 Q390 242 371.5 216.5 Q353 191 332 191 L326 191 Q287 195 259 264 Q248 289 242 289 Q240 289 239 288 Q238 287 218 217 Q203 165 194 148 Q185 131 173 131 Q142 131 95 268 Q76 324 67 333 Q55 346 55 366 Q55 394 73 394 Q92 394 126 296 Q160 198 167 198 Q173 198 185 243 Q202 304 215 328.5 Q228 353 243 353 Q244 353 245.5 352.5 Q247 352 248 352 Q258 350 266 338.5 Q274 327 288 293 Q315 230 328 230 Q336 230 350 253 Q364 276 399 346 Q439 428 460 450 Z " />
<glyph glyph-name="x" unicode="x" horiz-adv-x="455" d="M110 364 Q103 370 103 378 Q103 386 109 392.5 Q115 399 123 399 Q135 399 178 336 L209 289 Q248 308 294 331 Q378 373 383 373 Q390 373 396 365.5 Q402 358 401 351 Q400 343 320 302 Q239 262 239 258 Q239 249 293.5 201.5 Q348 154 359 154 Q365 154 370.5 147 Q376 140 376 132 Q376 115 358 115 Q355 115 347 117 Q313 127 241 197 Q204 234 199 234 Q193 234 149 200.5 Q105 167 97 151 Q90 138 78 137 L74 137 Q55 137 55 156 Q55 166 80 191 Q115 223 140 241 L175 269 Q175 272 145 315.5 Q115 359 110 364 Z " />
<glyph glyph-name="y" unicode="y" horiz-adv-x="284" d="M94 354 Q94 321 101 308.5 Q108 296 129 296 Q143 296 161 313.5 Q179 331 191 357 Q200 375 203.5 379.5 Q207 384 214 384 Q228 384 230.5 370.5 Q233 357 233 283 Q232 200 226 168 Q220 136 196 87 Q158 10 123 -8 Q107 -16 93 -16 Q72 -16 63 -1 Q57 9 63 18 Q67 25 70.5 26 Q74 27 85 25 Q89 24 95 24 Q103 24 119 39 Q155 72 182 151 Q193 187 195 236 Q195 243 195.5 253.5 Q196 264 196 267 Q196 286 193 286 Q191 286 173 274 Q152 259 124 259 Q100 259 84 269 Q60 285 55 345 Q54 355 54 368 Q54 379 59 384 Q66 391 76 391 Q86 391 90 384 Q94 376 94 354 Z " />
<glyph glyph-name="z" unicode="z" horiz-adv-x="425" d="M66 404 Q74 410 83 410 Q86 410 91.5 409.5 Q97 409 107 408 Q117 407 126 406 Q166 402 176.5 399.5 Q187 397 197 389 Q208 379 208 362 Q208 328 138 226 Q102 172 102 167 Q102 162 107 162 Q119 162 283 222 Q342 244 355 244 Q363 244 367 237 Q370 231 370 227 Q370 212 348 205 Q345 204 331 199 Q317 194 294.5 186 Q272 178 253 171 Q172 140 146 132.5 Q120 125 96 125 Q69 125 62 132 Q54 140 54 150 Q54 170 110 253 Q146 306 158 332 Q166 348 166 354 Q166 361 156 363.5 Q146 366 117 368 Q76 370 67 375 Q58 381 58 390 Q58 399 66 404 Z " />
<glyph glyph-name="Agrave" unicode="&#xc0;" horiz-adv-x="527" d="M250 405 Q222 449 213 449 Q210 449 209 445 Q201 424 180.5 360 Q160 296 160 292 Q160 290 162 288.5 Q164 287 172.5 286 Q181 285 195.5 285 Q210 285 238 285 Q319 285 319 289 Q319 296 300 327 Q298 331 278.5 360.5 Q259 390 250 405 Z M190 491 Q199 504 213 504 Q224 504 234.5 493 Q245 482 264 453 Q394 250 427 189 Q464 122 466 120 Q470 116 470 108 Q470 95 463 91 Q458 88 454 88 Q441 88 428 109 Q424 116 385 185 Q379 196 370 212 Q346 254 341 255 Q340 255 334 253 Q325 249 233 249 L142 249 L115 193 Q87 136 82 132 Q78 129 73 129 Q66 129 60.5 133.5 Q55 138 55 144 Q55 152 76 199 L99 246 L91 254 Q84 261 84 268 Q84 280 113 293 Q118 295 149 386 Q181 479 190 491 Z M92 640 Q96 656 114 656 Q115 656 117 655.5 Q119 655 120 655 Q142 650 211 605 Q234 590 240.5 584.5 Q247 579 247 572 Q247 565 241.5 559 Q236 553 229 553 Q226 553 224 554 Q215 556 178 581 Q119 618 110 618 Q103 618 97 625.5 Q91 633 92 640 Z " />
<glyph glyph-name="Egrave" unicode="&#xc8;" horiz-adv-x="454" d="M54 472 Q54 480 59 488 Q64 496 73 496 Q84 496 130 486 Q171 478 229 476 Q277 474 289 470.5 Q301 467 301 455 Q301 445 294 442 Q287 439 262 439 Q258 439 244.5 439.5 Q231 440 222 440 Q152 442 128 447 Q102 452 101 449 Q101 444 104.5 424.5 Q108 405 112 387.5 Q116 370 116 369 Q117 360 132 356 Q171 344 246 344 Q279 344 287 336 Q299 324 287 313 Q280 307 257 307 Q236 307 220 308 Q170 310 143 315 Q136 316 129 316.5 Q122 317 122 316 Q119 309 117 252 L115 191 L125 186 Q134 181 263 181 Q355 180 373.5 179 Q392 178 395 174 Q404 163 392 152 Q383 144 315 142 Q295 141 256 141 Q134 141 106 154 Q88 162 83.5 171.5 Q79 181 79 218 L79 252 L79 290 Q79 379 66 422 Q54 462 54 472 Z M108 632 Q108 637 115 645.5 Q122 654 126 654 Q131 654 168 619 Q208 580 224 566 Q243 548 243 540 Q243 523 226 523 Q214 523 161 572 Q108 621 108 632 Z " />
<glyph glyph-name="Eacute" unicode="&#xc9;" horiz-adv-x="421" d="M58 476 Q63 482 73 482 Q84 482 92 481 Q100 481 144.5 476.5 Q189 472 223 472 Q271 472 280 469 Q295 462 289 445 L286 435 L223 435 Q162 435 134 439 Q116 441 114 441 Q104 441 104 434 Q104 428 107 418 Q111 407 113 371 L115 341 L139 339 Q165 337 240 337 Q301 337 313.5 334.5 Q326 332 326 318 Q326 305 312 302.5 Q298 300 220 300 Q122 300 118 295 Q115 292 115 259 L115 234 L116 178 L129 171 Q143 163 204 163 Q266 163 308 170 Q341 176 348 176 Q354 176 359 171 Q374 158 359 145 Q338 126 207 126 L195 126 Q148 127 136 128 Q124 129 112 136 Q93 145 86 158 Q80 167 79 181 Q78 195 78 267 Q78 344 75 375 Q72 406 61 440 Q54 461 54 467 Q54 472 58 476 Z M205 603 Q291 654 296 654 Q301 654 308 647 Q315 640 315 635 Q315 628 303.5 619.5 Q292 611 251 586 Q192 551 169 535 Q139 516 122 516 Q116 516 112 519 Q107 523 107 531.5 Q107 540 113 545 Q121 553 205 603 Z " />
<glyph glyph-name="Igrave" unicode="&#xcc;" horiz-adv-x="228" d="M129 450 Q139 455 149 446 Q160 437 168 368.5 Q176 300 177 216 L177 181 Q177 142 169 134 Q163 128 160.5 127.5 Q158 127 151 131 L141 137 L139 225 Q135 340 123 402 Q120 418 120 429 Q120 447 129 450 Z M59 548 Q56 554 56 560 Q56 577 72 577 Q84 577 117 540 Q150 503 152 494 L152 492 L153 490 Q153 482 147.5 476.5 Q142 471 135 471 Q129 471 97 503.5 Q65 536 59 548 Z " />
<glyph glyph-name="Ograve" unicode="&#xd2;" horiz-adv-x="485" d="M184 407 Q179 407 172.5 413.5 Q166 420 166 425 Q166 430 140 426 Q115 422 105.5 402 Q96 382 94 328 L94 306 Q94 275 100 258.5 Q106 242 123 223 Q173 168 251 168 Q313 168 359 208 Q396 240 396 283 Q396 304 387 322 Q367 363 319.5 394 Q272 425 233 425 Q214 425 202 416 Q189 407 184 407 Z M109 580 Q117 590 123 590 Q131 590 162 566 Q187 547 226 523 Q265 499 265 487 Q265 482 258 476 Q251 470 251 467 Q251 462 270 459 Q312 451 358 414 Q404 377 423 335 Q432 317 432 297 L432 280 Q431 258 428 248 Q425 238 409 208 Q400 191 371.5 170.5 Q343 150 316 140 Q293 132 250 132 Q154 132 95 196 Q54 241 54 313 Q54 324 56 350 Q67 462 136 462 Q162 462 162 446 Q162 440 167 440 Q172 440 177 446 Q191 462 223 462 Q239 462 239 467 Q239 470 206 490 Q177 507 146 530.5 Q115 554 109 563 Q104 572 109 580 Z " />
<glyph glyph-name="Oacute" unicode="&#xd3;" horiz-adv-x="484" d="M213 472 Q228 501 283 501 L295 501 Q330 500 349 491 Q404 464 425 402 Q432 381 432 341 Q432 283 410 240 Q369 160 280 130 Q257 122 220 122 Q178 122 152.5 130.5 Q127 139 100 163 Q73 187 63 213 Q53 239 53 285 Q53 350 74 397 Q101 452 131 452 Q146 452 146 438 Q146 428 135 422 Q85 396 85 289 L85 279 Q86 241 96 221 Q129 153 220 153 Q282 153 331 193 Q380 233 394 288 Q401 316 401 344 Q401 405 364 441 Q335 470 291 470 Q256 470 240 457 Q223 443 214 456 Q209 465 213 472 Z M293 624 Q299 626 302 626 Q310 626 315.5 621 Q321 616 321 609 Q321 602 315.5 598.5 Q310 595 287 585 Q276 581 218 554 Q170 533 154 533 Q141 533 141 547 Q141 558 171 570 Q179 573 231.5 596 Q284 619 293 624 Z " />
<glyph glyph-name="Ugrave" unicode="&#xd9;" horiz-adv-x="485" d="M378 511 Q385 518 391 518 Q406 518 419 477 Q433 433 433 382 Q433 263 378 184 Q343 134 285 130 Q278 129 266 129 Q190 129 128 191 Q80 240 62 294 Q55 314 54 329 Q53 344 53 406 Q53 489 60 497 Q74 512 85 501 Q88 498 88 471 Q88 466 87.5 452 Q87 438 87 428 Q87 420 86.5 407 Q86 394 86 388 Q86 333 102 292 Q118 250 161 209 Q185 187 205 178 Q225 169 259 165 Q262 165 266 164.5 Q270 164 272 164 Q330 164 364 234 Q382 273 388 302 Q394 331 394 383 Q394 425 392.5 437.5 Q391 450 384 468 Q373 496 373 502 Q373 506 378 511 Z M149 624 Q156 630 163 630 Q175 630 203 589 Q234 546 264 516 Q302 476 302 473 Q302 468 295.5 462 Q289 456 282 456 Q273 456 237 492 Q201 528 180 558 Q156 593 150 596 Q142 602 142 611 Q142 620 149 624 Z " />
<glyph glyph-name="agrave" unicode="&#xe0;" horiz-adv-x="310" d="M81 404 Q84 405 103 405 L116 405 Q145 404 167 392 Q190 381 213 357.5 Q236 334 247 313 Q257 292 257 255 Q257 217 249 203 Q240 185 222 166.5 Q204 148 189 141 Q170 131 148 131 Q120 131 98 147 Q76 163 72 188 Q71 192 71 201 Q71 223 89.5 239 Q108 255 151 269 Q178 278 187 278 Q195 278 201 272 Q208 265 208 260 Q208 246 169 234 Q109 216 109 199 Q109 191 117.5 181.5 Q126 172 136 170 Q144 168 147 168 Q167 168 193 194 Q223 224 223 253 Q223 268 217 286 Q212 304 188 328 Q165 351 148 358 Q130 366 112 366 Q100 366 93 361 Q79 351 68 362 Q62 368 62 378 Q62 399 81 404 Z M58 517 Q62 524 72 524 Q88 524 113 511 Q147 495 173 485 Q209 471 217.5 465.5 Q226 460 226 451 Q226 432 209 432 Q201 432 158.5 449 Q116 466 88 480 Q55 497 55 508 Q55 512 58 517 Z " />
<glyph glyph-name="egrave" unicode="&#xe8;" horiz-adv-x="384" d="M193 317 Q192 320 188 320 Q183 320 178 313 Q173 306 173 300 Q173 295 178 295 Q183 295 189 304 Q195 313 193 317 Z M169 354 Q179 360 193 360 Q208 360 220 351 Q230 345 231 326 L231 317 Q231 261 179 258 L156 257 L157 232 Q157 212 162 201.5 Q167 191 181 180 Q191 173 205 173 Q245 173 269 205 Q294 238 294 260 Q294 280 312 280 Q329 280 329 260 L329 250 Q327 221 305.5 189.5 Q284 158 256 145 Q234 134 211 134 Q175 134 150 156 Q118 185 118 241 Q118 276 124 294 Q129 311 142.5 329 Q156 347 169 354 Z M56 500 Q56 506 62 512 Q68 518 74 518 Q86 518 104 501 Q147 462 189 443 Q211 433 212 425 Q212 424 212.5 423 Q213 422 213 421 Q213 413 207 407 Q201 401 194 401 Q181 401 138 428 Q95 455 71 478 Q56 493 56 500 Z " />
<glyph glyph-name="eacute" unicode="&#xe9;" horiz-adv-x="314" d="M150 294 Q150 302 143 302 Q136 302 122 295 Q117 293 115 289.5 Q113 286 115 283.5 Q117 281 122 281 Q133 281 141.5 285 Q150 289 150 294 Z M112 333 Q126 340 143 340 Q165 340 179.5 327.5 Q194 315 194 298 Q194 285 186 274 Q167 245 120 243 Q102 243 97.5 241.5 Q93 240 91 233 Q89 225 89 221 Q89 198 108 179.5 Q127 161 154 161 Q164 161 175 164 Q189 168 208 178.5 Q227 189 229 195 Q231 200 241.5 200.5 Q252 201 256 196 Q261 191 261 185 Q261 174 246.5 160 Q232 146 209 136 Q182 125 148 125 Q131 125 119 128 Q104 132 86.5 146.5 Q69 161 61 177 Q53 195 53 226 Q53 260 62 280 Q78 317 112 333 Z M203 472 Q224 482 231 482 Q236 482 242 479 Q249 475 249 465 Q249 455 243 449 Q232 439 157.5 412 Q83 385 68 385 L67 385 Q52 387 52 401 Q52 408 57 413 Q62 418 123 441 Q155 452 203 472 Z " />
<glyph glyph-name="igrave" unicode="&#xec;" horiz-adv-x="209" d="M105 372 Q111 381 120 381 Q129 381 134 373 Q147 353 150 225 Q151 197 151 166 Q151 141 144 134 Q139 129 132 129 Q119 129 114 143 Q111 158 111 225 Q111 297 107 317 Q101 347 101 357 Q101 367 105 372 Z M56 607 Q56 612 61.5 619 Q67 626 72 626 Q88 626 101 598 Q108 584 134 550 Q158 522 158 509 Q158 503 151 496 Q143 489 135 493 Q121 498 88.5 545.5 Q56 593 56 607 Z " />
<glyph glyph-name="ograve" unicode="&#xf2;" horiz-adv-x="358" d="M267 264 Q267 293 239.5 310 Q212 327 173 327 Q162 327 156 326 Q145 325 141 320 Q137 315 142 310 Q146 306 146 300 Q146 289 134 280 Q120 269 117 250 Q115 242 115 224 Q115 194 123 181 Q133 164 170 164 Q207 164 237 195 Q267 226 267 264 Z M146 363 Q150 364 171 364 L185 364 Q241 361 275 330 Q303 303 303 265 L303 254 Q298 173 220 136 Q196 125 167 125 Q138 125 122 134 Q88 151 80 183 Q78 190 78 213 Q78 259 86 283 Q92 300 86 307 Q81 312 81 320 Q81 333 99 345 Q117 357 146 363 Z M61 506 Q65 512 73 512 Q85 512 153 464 Q181 444 203 431 Q224 418 224 406 Q224 399 215 393 Q209 389 206 389 Q196 389 121 439 Q81 466 68 477 Q55 488 55 495 Q55 500 61 506 Z " />
<glyph glyph-name="oacute" unicode="&#xf3;" horiz-adv-x="344" d="M209 340 Q190 350 164 350 Q148 350 136 346 Q106 338 106 329 Q106 325 107 323 Q110 311 101 302 Q86 287 86 244 Q86 210 97 191 Q120 148 172 148 Q206 148 228 170 Q249 191 256 223 Q259 238 259 252 Q259 317 209 340 Z M126 379 Q146 384 164 384 Q207 384 238 364 Q268 343 286 299 Q293 278 293 264 Q293 262 292.5 255 Q292 248 292 244 Q291 209 280 186 Q261 143 225 125 Q210 117 173 117 Q137 117 118 126 Q101 134 85 150.5 Q69 167 62 183 Q53 201 53 247 Q53 269 56 284 Q60 302 55 314 Q53 320 53 323 Q53 340 73 355.5 Q93 371 126 379 Z M240 507 Q264 522 269 522 Q273 522 279.5 515.5 Q286 509 286 505 Q286 490 221 457 Q173 434 151 434 Q134 434 130 447 Q130 448 129.5 449 Q129 450 129 451 Q129 463 154 468 Q183 473 240 507 Z " />
<glyph glyph-name="ugrave" unicode="&#xf9;" horiz-adv-x="339" d="M241 326 Q247 335 256 335 Q264 335 274 327 Q286 316 286 289 Q286 260 273 224 Q260 188 239 162 Q212 129 171 129 Q149 129 129 139 Q93 155 73.5 189 Q54 223 54 268 Q54 282 55 289 Q59 328 77 328 Q87 328 90.5 320.5 Q94 313 94 291 L94 278 L94 268 Q94 241 99.5 226 Q105 211 121 193 Q144 167 169 167 Q195 167 217 198 Q240 232 247 269 Q249 277 249 286 Q249 294 243 304 Q235 316 241 326 Z M64 565 Q64 575 72 581 Q80 587 83 587 Q97 587 137 532 Q162 496 185 470 Q199 454 199 448 Q199 441 191 435.5 Q183 430 173 430 L171 430 Q164 430 105 510 Q85 538 73 548 Q64 554 64 565 Z " />
<glyph glyph-name="exclam" unicode="&#x21;" horiz-adv-x="162" d="M76 184 Q69 191 69 199 Q69 207 75 213 Q81 219 88 219 Q96 219 103 212 Q111 205 111 196 Q111 188 105 182 Q99 176 92 176 Q84 176 76 184 Z M56 554 Q61 563 68 563 Q87 563 93 524 Q104 458 104 375 Q104 334 100 330 Q95 326 85.5 326 Q76 326 72 331 Q67 338 64 412 Q60 488 55 517 Q52 535 52 542 Q52 549 56 554 Z " />
<glyph glyph-name="quotedbl" unicode="&#x22;" horiz-adv-x="247" d="M53 649 Q58 654 66 654 Q77 654 84 647 Q88 643 97.5 605 Q107 567 108 565 Q112 556 112 546 Q112 533 103 530 Q97 528 94 528 Q86 528 80.5 533.5 Q75 539 70.5 554 Q66 569 64.5 575 Q63 581 59 600 Q51 637 51 642 Q51 645 53 649 Z M142 655 Q150 660 156 660 Q167 660 172 652 Q177 645 186.5 614.5 Q196 584 196 576 Q196 559 177 559 Q167 559 162 566.5 Q157 574 146 602 Q135 631 135 642 Q135 651 142 655 Z " />
<glyph glyph-name="numbersign" unicode="&#x23;" horiz-adv-x="554" d="M299 426 Q287 430 217 430 Q197 430 196 429 Q193 426 195 415 Q199 393 200 366 L203 327 L248 328 Q290 328 299 331 Q303 332 303 378 Q303 425 299 426 Z M298 577 Q306 585 310 585 Q320 585 324.5 572.5 Q329 560 333 519 L338 466 L396 465 Q456 464 462 457 Q469 449 463 439 L458 430 Q439 430 400 428 Q361 426 341 426 L340 381 L340 360 Q340 336 345 334 L347 334 Q349 334 352 333.5 Q355 333 359 333 Q384 333 420 336 Q462 339 477 339 Q492 339 495 336 Q501 332 501 322 Q501 312 494 308 Q492 307 417.5 299.5 Q343 292 341 291 Q329 281 329 198 Q329 171 322 164 Q310 152 298 165 Q293 170 293 190 Q293 213 294 233 L296 293 L253 291 Q210 289 207 286 Q204 284 204 232 Q204 179 197 172 Q190 165 187 165.5 Q184 166 176 172 Q168 179 167 231 L166 284 L124 285 Q92 286 80.5 290 Q69 294 69 304 Q69 315 80 318.5 Q91 322 122 323 L162 324 L162 364 Q160 401 158 415 Q156 423 152 424.5 Q148 426 127 427 L117 427 Q100 427 88 422 Q78 417 73.5 417 Q69 417 62 424 Q55 431 55 440 Q55 448 62 455 Q69 461 90 463 Q111 465 129 465.5 Q147 466 148 468 Q150 470 144 497 Q141 511 141 520 Q141 537 157 537 Q168 537 173 529.5 Q178 522 183 498 L188 470 L207 467 Q227 465 260 465 Q296 465 298 470 L298 472 Q298 473 298.5 475.5 Q299 478 299 481 Q299 499 296 523 Q293 553 293 562 Q293 570 298 577 Z " />
<glyph glyph-name="dollar" unicode="&#x24;" horiz-adv-x="434" d="M305 369 Q293 383 289 383 Q284 383 281 354 Q281 347 279.5 333 Q278 319 275.5 301 Q273 283 272 273 Q269 243 269 226 Q269 220 272 220 Q283 220 309.5 243.5 Q336 267 340 280 Q342 290 342 294 Q342 323 305 369 Z M242 527 Q238 534 236 534 Q231 534 218.5 523.5 Q206 513 206 509 Q206 504 221 489.5 Q236 475 241 475 Q246 475 246 498 Q246 517 242 527 Z M235 676 Q246 687 260 677 Q268 672 268 657 Q268 644 272 616 L277 590 L312 588 Q346 587 357 580 Q381 564 381 549 Q381 541 373 536 Q367 531 363 531 Q359 531 346 541 Q331 552 309 552 Q286 552 284 547 Q282 543 282 494 L283 444 L307 420 Q378 351 379 294 Q379 270 368 250 Q345 213 286 184 L259 170 L257 145 Q256 105 245 99 Q237 95 229 101 Q220 107 220 131 L220 155 L199 152 Q181 149 138 149 Q98 149 83 157 Q56 171 56 196 Q56 223 78 223 Q96 223 96 203 Q96 195 98.5 192 Q101 189 112 186 Q122 183 138 183 Q164 183 190.5 189 Q217 195 222 203 Q228 212 237 285.5 Q246 359 246 397 L246 423 L230 433 Q214 443 196.5 460.5 Q179 478 174 487 Q169 495 169 511 Q169 543 217 567 Q227 573 229.5 574.5 Q232 576 235 580 Q238 584 238 590 Q238 597 233 625 Q228 657 228 661 Q228 669 235 676 Z " />
<glyph glyph-name="percent" unicode="&#x25;" horiz-adv-x="360" d="M270 265 Q276 274 284 274 Q290 274 298 268 Q304 262 304 254 Q304 235 285 235 L281 235 Q266 237 266 252 Q266 260 270 265 Z M74 537 Q79 541 87 541 Q98 541 106.5 533.5 Q115 526 115 517 Q115 508 106 502 Q98 498 94 498 Q84 498 76 505.5 Q68 513 68 523 Q68 534 74 537 Z M231 560 Q236 566 247 566 Q256 566 260 562 Q265 557 265 550 Q265 542 258 531 Q257 530 236 490 Q192 403 137 327 Q87 258 72 258 Q70 258 62 262 Q53 268 53 277 Q53 288 64 299 Q86 319 123.5 376 Q161 433 196 498 Q221 547 231 560 Z " />
<glyph glyph-name="ampersand" unicode="&#x26;" horiz-adv-x="429" d="M134 278 Q127 309 124 309 Q121 309 110 296.5 Q99 284 94 274 Q90 267 90 256 Q90 221 118 203 Q130 196 153 196 Q164 196 164 199 Q164 201 151 229 Q137 258 134 278 Z M199 492 Q191 500 188 500 Q181 500 171 465 Q161 430 161 410 Q161 402 163 400 Q164 399 166 399 Q178 399 201 426 Q215 442 215 457 Q215 475 199 492 Z M160 525 Q171 536 190 536 Q208 536 222 523 Q252 496 252 457 Q252 439 244 421 Q239 409 217.5 387.5 Q196 366 177 354 Q164 345 164 332 Q164 304 178.5 262.5 Q193 221 203 221 Q210 221 226.5 239.5 Q243 258 251 273 Q262 297 273 297 Q276 297 280 295 Q288 291 290 285 Q291 283 291 279 Q291 265 277.5 243 Q264 221 245 204 Q235 195 234.5 192.5 Q234 190 239 186 Q255 174 284 164.5 Q313 155 337 155 Q372 155 372 138 Q372 129 362 122 Q354 115 343 115 Q334 115 328 116 Q255 124 212 158 Q201 166 196 166 Q192 166 181 163 Q159 159 142 159 Q123 159 111 163 Q99 168 83 184 Q67 200 61 215 Q54 229 54 247 L54 259 Q55 285 68 304 Q81 323 104 344 L127 367 L127 410 Q127 491 160 525 Z " />
<glyph glyph-name="quotesingle" unicode="&#x27;" horiz-adv-x="190" d="M52 646 Q52 654 59 661 Q66 668 73 668 Q108 668 134 550 Q135 545 136 540 Q137 535 137.5 532 Q138 529 138 527 Q138 524 134 516 Q130 507 118 507 Q112 507 107 512 Q103 518 94 552 Q77 620 61 630 Q52 636 52 646 Z " />
<glyph glyph-name="parenleft" unicode="&#x28;" horiz-adv-x="265" d="M120 577 Q130 585 142 585 Q154 585 163 579 Q172 573 172 564 Q172 547 153 547 Q135 547 115 488 Q87 399 87 274 Q87 244 90 222 Q98 166 125 117 Q152 68 192 41 Q208 31 208 21 Q208 13 199 7 Q189 1 173 9 Q159 16 133.5 42.5 Q108 69 95 91 Q73 129 59 178 Q52 203 52 291 Q52 380 59 419 Q69 475 86 519.5 Q103 564 120 577 Z " />
<glyph glyph-name="parenright" unicode="&#x29;" horiz-adv-x="274" d="M135 600 Q141 603 145 603 Q152 603 159 592.5 Q166 582 181 551 Q211 491 218 419 Q221 394 221 369 Q221 233 135 105 Q93 41 72 41 Q66 41 61 46 Q57 50 57 56 Q57 67 76 92 Q136 169 163 249 Q181 302 181 375 Q181 424 173.5 458 Q166 492 145 535 Q126 574 126 584 Q126 587 127 589 Q131 599 135 600 Z " />
<glyph glyph-name="asterisk" unicode="&#x2a;" horiz-adv-x="270" d="M103 488 Q110 498 118 498 Q134 498 139 453 L141 422 L154 423 Q167 423 184 428 Q201 433 209 426 Q216 420 216 413 Q216 393 169 384 Q147 380 147 376 Q147 372 153 362 Q161 346 161 336 Q161 311 141 311 Q125 311 116 329 Q110 340 106 340 Q102 340 93 329 Q81 316 72 316 Q66 316 62 320 Q55 326 55 333 Q55 342 64 354 Q73 366 73 372 Q73 379 63 384 Q52 390 52 403 Q52 424 81 424 L95 424 L95 451 Q95 477 103 488 Z " />
<glyph glyph-name="plus" unicode="&#x2b;" horiz-adv-x="391" d="M167 436 Q170 441 179 441 Q190 441 194.5 430 Q199 419 200 381 L201 333 L248 332 L265 332 Q293 332 305 337 Q317 342 321 342 Q328 342 334 333 Q338 328 338 321 Q338 310 323 301 Q313 295 257 295 Q205 295 200 288 Q196 280 196 235 Q196 198 193 189.5 Q190 181 177 181 Q164 181 160.5 191.5 Q157 202 157 241 L157 289 L111 291 Q74 293 63.5 297 Q53 301 53 311 Q53 322 64 326 Q75 330 113 331 L161 333 L162 382 Q162 431 167 436 Z " />
<glyph glyph-name="comma" unicode="&#x2c;" horiz-adv-x="206" d="M113 144 Q123 178 136 178 Q142 178 149 172 Q155 166 155 155 Q155 134 133 89 Q105 31 80 15 Q72 9 62 13 Q53 18 53 26 Q53 37 69 59 Q100 100 113 144 Z " />
<glyph glyph-name="hyphen" unicode="&#x2d;" horiz-adv-x="369" d="M96 341 Q147 347 165 347 Q191 347 244 343 Q290 340 303 336.5 Q316 333 316 323 Q316 302 287 302 Q282 302 260 304 Q212 308 161 308 Q98 308 98 304 Q98 300 83 300 Q63 300 57 306 Q51 311 51 320 Q51 329 56 333 Q62 339 96 341 Z " />
<glyph glyph-name="period" unicode="&#x2e;" horiz-adv-x="136" d="M54 141 Q58 146 67.5 146 Q77 146 82 142 Q86 138 86 130 Q86 118 79 111 Q75 107 69 107 Q62 107 56.5 114 Q51 121 51 130 Q51 136 54 141 Z " />
<glyph glyph-name="slash" unicode="&#x2f;" horiz-adv-x="297" d="M212 577 Q223 588 235 578 Q242 571 242 557 Q242 526 210 447 Q198 416 196 408 Q194 394 143 304 Q101 230 94 203 Q89 183 74 183 Q55 183 55 199 Q55 226 109 322 Q159 411 165 433 Q165 435 185 493 Q205 551 205 559 Q205 570 212 577 Z " />
<glyph glyph-name="colon" unicode="&#x3a;" horiz-adv-x="150" d="M63 154 Q69 164 77 164 Q86 164 92 157.5 Q98 151 98 142 Q98 135 94 131 Q90 127 78 127 Q59 127 59 142 Q59 149 63 154 Z M51 293 Q51 301 59 307 Q67 313 69 313 Q71 313 79 307 Q87 301 87 293 Q87 286 81.5 280.5 Q76 275 69 275 Q64 275 60 278 Q51 284 51 293 Z " />
<glyph glyph-name="semicolon" unicode="&#x3b;" horiz-adv-x="193" d="M104 150 Q108 157 117 157 Q134 157 134 140 Q134 133 114 98 Q94 63 84 53 Q76 45 69 45 Q62 45 57 53 Q54 57 54 60 Q54 67 75 102 Q101 146 104 150 Z M141 228 Q141 220 134 214 Q127 208 119 212 Q111 216 111 225 Q111 242 126 242 Q141 242 141 228 Z " />
<glyph glyph-name="less" unicode="&#x3c;" horiz-adv-x="274" d="M173 427 Q193 441 203 441 Q216 441 216 423 Q216 413 201.5 401 Q187 389 147 365 Q103 339 103 335 Q103 331 131 297 Q220 191 220 176 Q220 167 211 162 Q202 156 193 162 Q179 172 149 212 Q118 253 85 292 Q56 327 54 335 Q53 337 53 340 Q53 356 108 387 Q151 411 173 427 Z " />
<glyph glyph-name="equal" unicode="&#x3d;" horiz-adv-x="365" d="M68 326 Q74 333 187 333 Q300 333 307 327 Q321 315 306 302 Q300 296 242 296 L187 296 Q74 297 68 303 Q56 313 68 326 Z M136 417 Q153 417 175 418 Q197 419 211 419.5 Q225 420 230 420 L235 420 Q268 420 268 400 Q268 389 260 385 Q246 379 107 379 Q58 379 56 381 Q51 385 51 395 Q51 405 56 409 Q63 414 136 417 Z " />
<glyph glyph-name="greater" unicode="&#x3e;" horiz-adv-x="295" d="M59 479 Q62 484 72 484 Q90 484 90 471 Q90 465 110 441.5 Q130 418 151 400 Q172 382 204 358 Q241 330 241 316 Q241 315 240.5 313 Q240 311 240 310 Q238 301 208 266 Q171 223 158.5 203.5 Q146 184 141 163 Q138 149 129 145 Q120 142 114 149 Q109 155 109 164 Q109 172 113 185 Q121 213 174 277 L206 315 L197 322 Q101 396 69 439 Q56 456 56 468 Q56 473 59 479 Z " />
<glyph glyph-name="question" unicode="&#x3f;" horiz-adv-x="344" d="M197 73 Q197 80 201 84 Q205 88 212 88 Q221 88 229 82 Q237 76 237 68 Q237 62 230.5 55 Q224 48 218 48 Q209 48 203 56 Q197 64 197 73 Z M97 577 Q103 580 151 580 Q197 579 220 569 Q269 548 283 519 Q288 511 288 489 Q288 438 208 373 Q175 347 175 345 Q175 342 186 313 Q192 295 199 248.5 Q206 202 208 193 Q210 181 210 178 Q210 161 194 161 Q181 161 175.5 172.5 Q170 184 166 222 Q160 270 137 332 Q130 347 133 357 Q134 364 173 394 Q251 454 251 488 Q251 508 223 524 Q185 545 142 545 Q105 545 93 528 Q86 518 75 518 Q63 518 58 528 Q56 532 56 536 Q56 548 67.5 559.5 Q79 571 97 577 Z " />
<glyph glyph-name="at" unicode="&#x40;" horiz-adv-x="403" d="M198 322 Q188 326 187 326 Q179 326 179 310 Q179 300 185 298 Q191 296 198 302 Q212 314 198 322 Z M201 364 Q201 355 208.5 362 Q216 369 207 369 Q201 369 201 364 Z M251 504 Q216 537 197 537 Q182 537 168 524 Q143 501 120.5 457.5 Q98 414 91 375 Q88 357 88 340 Q88 261 161 234 Q178 227 212 227 Q255 227 275 237 Q292 244 292 249 Q292 252 284 252 Q277 252 273 251 Q267 250 259 250 Q246 250 234 256 Q215 264 206 260 Q198 256 187 256 Q160 256 149 280 Q143 292 143 317 Q143 345 150 373 Q162 421 175 431 Q183 438 195 438 Q222 438 240 403 Q250 386 256 381 Q264 377 264 363 Q264 347 256 339 Q247 326 247 310 L247 291 L261 290 L265 290 Q288 290 302 319 Q314 344 314 373 Q314 444 251 504 Z M157 563 Q176 574 195 574 Q214 574 234 565 Q265 551 298 509 Q331 467 344 427 Q350 409 350 385 L350 368 Q346 308 319 278 Q303 260 303 258 Q303 256 313 248 Q321 243 321 234 Q321 224 311 215 Q283 189 214 189 Q172 189 139 201 Q117 209 96.5 228 Q76 247 65 270 Q53 294 52 331 L52 344 Q52 371 59 400 Q70 448 99.5 496.5 Q129 545 157 563 Z " />
<glyph glyph-name="bracketleft" unicode="&#x5b;" horiz-adv-x="291" d="M89 530 Q106 534 123 534 Q159 534 159 513 Q159 494 122 494 Q96 494 93 491 Q91 489 91 480 Q91 475 93 445 Q97 399 97 348 Q97 306 102.5 242.5 Q108 179 112 173 Q115 169 168 167 Q220 166 228 159 Q241 147 230 135 Q225 130 192 130 L161 130 Q107 131 94.5 133 Q82 135 78 142 Q73 152 67 221 Q61 290 59 354 Q57 438 52 474 Q50 496 50 501 Q50 515 57 519.5 Q64 524 89 530 Z " />
<glyph glyph-name="backslash" unicode="&#x5c;" horiz-adv-x="253" d="M61 560 Q73 574 84 561 Q92 552 116.5 486.5 Q141 421 164 349 Q189 276 192 269 Q199 254 199 246 Q199 243 197 239 Q194 232 186.5 229 Q179 226 172 230 Q158 238 117 368 Q101 419 74 486 Q55 533 55 545 Q55 554 61 560 Z " />
<glyph glyph-name="bracketright" unicode="&#x5d;" horiz-adv-x="329" d="M125 507 Q113 513 113 523 Q113 530 119.5 535.5 Q126 541 135 541 L139 541 Q141 541 163.5 538 Q186 535 204.5 532 Q223 529 226 526 Q233 519 235 449 Q237 358 259 245 Q275 164 275 143 Q275 132 272 128 Q268 120 221 118 Q183 116 163 116 Q91 116 72 124 Q56 130 56 143 Q56 148 58 151 Q62 158 147 158 L232 158 L231 178 Q231 194 221 242 Q202 334 198 430 L195 494 L166 498 Q135 502 125 507 Z " />
<glyph glyph-name="asciicircum" unicode="&#x5e;" horiz-adv-x="301" d="M123 634 Q144 669 157 669 Q164 669 170 662 Q177 655 198 609 Q219 564 234 547 Q248 533 248 522 Q248 514 240 510 Q236 507 230 507 Q204 507 172 572 Q157 603 153 603 Q148 603 143 593 Q139 585 113 560 Q89 537 75 537 Q52 537 52 553 Q52 559 57.5 566.5 Q63 574 68 574 Q73 574 93.5 596.5 Q114 619 123 634 Z " />
<glyph glyph-name="underscore" unicode="&#x5f;" horiz-adv-x="345" d="M61 172 Q66 174 82 172 Q113 169 186 167 Q260 165 276.5 161.5 Q293 158 293 142 Q293 135 288 129.5 Q283 124 276 124 Q273 124 271 125 Q258 128 168 130 Q96 132 77 135 Q58 138 53 149 Q50 155 52.5 162 Q55 169 61 172 Z " />
<glyph glyph-name="grave" unicode="&#x60;" horiz-adv-x="167" d="M57 680 Q63 687 70 687 Q87 687 105 638 Q116 605 116 597 Q116 589 110 583 Q104 577 99 577 Q91 577 83.5 589 Q76 601 68.5 621.5 Q61 642 59 645 Q51 664 51 668 Q51 674 57 680 Z " />
<glyph glyph-name="braceleft" unicode="&#x7b;" horiz-adv-x="308" d="M133 598 Q142 615 171 636 Q200 657 224 657 Q236 657 244 650.5 Q252 644 252 636 Q252 629 244 623 Q236 617 224 617 Q214 617 196 606 Q178 595 170 584 Q165 576 165 573 Q165 571 166 568 Q167 565 168.5 559 Q170 553 172 547 Q181 520 181 483 Q181 447 169 423 Q161 406 151 389 Q146 381 146.5 379 Q147 377 156 368 Q172 352 172 337 Q172 315 135 259 Q91 194 91 156 Q91 154 91.5 149 Q92 144 92 142 Q93 115 105 94 Q122 63 154.5 37.5 Q187 12 217 7 Q234 4 239.5 0 Q245 -4 245 -13 Q245 -31 223 -31 L214 -31 Q177 -28 132 6 Q87 40 68 80 Q59 98 57.5 108 Q56 118 56 152 Q56 186 57.5 195 Q59 204 67 221 Q80 249 105 284 Q131 323 131 330 Q131 346 103 346 Q95 346 87.5 351.5 Q80 357 80 364 Q80 372 101 393 Q143 436 143 484 Q143 512 135 534 Q128 552 128 572 Q128 586 133 598 Z " />
<glyph glyph-name="bar" unicode="&#x7c;" horiz-adv-x="150" d="M53 634 Q51 642 51 644 Q51 664 72 664 Q89 664 95 639 Q101 614 101 536 Q101 486 100 454 Q99 356 93 258.5 Q87 161 82 153 Q79 148 69 148 Q59 148 54 152 Q50 156 50 183 Q50 218 56 282 Q63 355 63 517 Q63 588 61 599 Q57 626 53 634 Z " />
<glyph glyph-name="braceright" unicode="&#x7d;" horiz-adv-x="249" d="M77 666 Q89 668 94 668 Q122 668 150 655 Q178 642 188 624 Q193 614 193 601 Q193 583 182.5 566.5 Q172 550 135 507 Q97 463 97 453 Q97 443 132 443 Q153 443 160.5 440 Q168 437 168 428 L168 423 Q167 414 146 403 Q112 385 108 353 Q108 352 107.5 348.5 Q107 345 107 343 Q107 314 139 241 Q162 188 168 166 Q173 144 173 116 Q173 94 169 76 Q158 35 121 -25.5 Q84 -86 70 -86 Q62 -86 58 -82 Q54 -78 54 -72 Q54 -58 77 -24 Q124 45 134 92 Q137 107 137 121 Q137 155 105 229 Q72 306 72 339 L72 348 Q73 375 82 392 Q91 409 86 411 Q79 413 70.5 422.5 Q62 432 60 440 Q60 442 59.5 444.5 Q59 447 59 448 Q59 475 117 542 Q156 588 156 601 Q156 612 132 623 Q116 631 103 631 Q95 631 90 630 Q67 628 61 634 Q54 641 54 647 Q54 661 77 666 Z " />
<glyph glyph-name="asciitilde" unicode="&#x7e;" horiz-adv-x="338" d="M90 390 Q100 397 113 397 Q141 397 161 365 Q180 335 186.5 327.5 Q193 320 202 320 Q217 320 250 360 Q258 371 271 371 Q286 371 286 353 Q286 344 269.5 324 Q253 304 238 293 Q221 282 204 281 L198 281 Q179 281 165 293.5 Q151 306 131 340 Q120 357 114 357 Q107 357 91 338 Q77 321 72 321 Q71 321 65 323 Q52 328 52 341 Q52 353 64.5 367 Q77 381 90 390 Z " />
<glyph glyph-name="degree" unicode="&#xb0;" horiz-adv-x="221" d="M130 577 Q133 586 133 594 Q133 613 119 613 Q115 613 113 612 Q89 607 89 581 Q89 560 109 560 L112 560 Q120 561 123 563.5 Q126 566 130 577 Z M91 646 Q103 651 116 651 Q134 651 147 643 Q170 628 170 592 Q170 545 141 527 Q131 520 121 520 Q113 520 107 521 Q87 523 79 527 Q71 531 61 544 Q51 557 51 584 Q51 603 53 608.5 Q55 614 66 626 Q81 641 91 646 Z " />
<glyph glyph-name="plusminus" unicode="&#xb1;" horiz-adv-x="360" d="M129 477 Q134 486 147 486 Q154 486 159 481 Q162 476 164 459 L165 441 L187 441 Q222 441 222 423 Q222 402 194 402 Q176 402 171 398.5 Q166 395 166 381 L166 374 Q166 369 169 350 Q172 331 172 322 Q172 311 169 305 Q163 295 163 293 Q163 289 190 289 Q227 289 257 295 Q262 296 268 297 Q274 298 277.5 298.5 Q281 299 284 299 Q289 299 297 295 Q304 290 305.5 281.5 Q307 273 301 268 Q285 257 212 251 Q209 251 201.5 250.5 Q194 250 189 250 Q153 250 108 253.5 Q63 257 59 261 Q54 265 54.5 273.5 Q55 282 61 287 Q66 292 80 292 Q95 292 107 291 Q117 290 131 290 Q145 290 145 295 Q145 297 140 305 Q133 316 130 349 Q126 388 125 391 Q124 395 104 395 Q84 395 80 399 Q76 403 76 410 Q76 418 82.5 424.5 Q89 431 98 431 Q108 431 118 435 Q125 438 126 441 Q127 444 125 454 Q123 467 129 477 Z " />
<glyph glyph-name="uni00b2" unicode="&#xb2;" horiz-adv-x="263" d="M89 688 Q92 689 99 689 Q134 689 148 661 Q154 650 154 635 L154 621 Q152 596 124 545 Q98 495 98 491 Q98 487 148 487 Q196 487 203 480 Q216 467 202 455 Q196 450 163 450 L131 450 Q85 451 74.5 452.5 Q64 454 59 460 Q53 468 53 476 Q53 490 86 555 Q117 616 117 627 Q117 632 116 635 Q113 646 110.5 647.5 Q108 649 94 649 Q78 649 72.5 652 Q67 655 67 665 Q67 683 89 688 Z " />
<glyph glyph-name="uni00b3" unicode="&#xb3;" horiz-adv-x="230" d="M94 694 Q94 702 101 709 Q108 716 130 716 Q153 716 161 709 Q177 696 177 676 Q177 656 161 634 Q149 619 149 615 Q149 612 158 603 Q168 592 173 582 Q178 569 178 553 Q178 531 170 513 Q157 486 128.5 466 Q100 446 78 446 Q68 446 60 452 Q54 458 54 464 Q54 479 79 484 Q100 488 118.5 507.5 Q137 527 140 547 L140 553 Q140 576 106 591 Q82 602 82 613 Q82 624 107 640 Q137 658 137 671 Q137 674 135 676 Q132 679 121 675 Q110 670 102 678 Q94 684 94 694 Z " />
<glyph glyph-name="middot" unicode="&#xb7;" horiz-adv-x="140" d="M60 320 Q51 326 51 336 Q51 345 57.5 352 Q64 359 72 359 Q78 359 83 354 Q88 349 88 341 Q88 332 82.5 324.5 Q77 317 69 317 Q64 317 60 320 Z " />
<glyph glyph-name="onequarter" unicode="&#xbc;" horiz-adv-x="403" d="M273 382 Q290 407 296 413.5 Q302 420 309 420 Q328 420 328 406 Q328 396 317 380 Q307 366 307 360 Q307 356 313 350 Q320 343 322 333 Q323 324 332 323 Q350 320 350 304 Q350 288 334 285 Q326 284 324 260 Q320 227 302 227 Q287 227 284 258 L283 276 L265 278 Q248 280 241 287 Q234 294 234 304 Q234 325 273 382 Z M107 455 Q120 464 126 464 Q130 464 139 457 Q145 452 146.5 441.5 Q148 431 149 385 L150 319 L141 313 Q131 306 122 312 Q115 316 114 323 Q113 330 113 362 L113 407 L103 404 Q85 401 77 400 Q66 399 63 400 Q60 401 57 408 Q55 411 55 417 Q55 427 77 437 Q81 439 107 455 Z M244 486 Q254 496 266 490 Q273 486 273 474 Q273 438 213 317 Q179 249 179 240 Q179 231 172.5 223.5 Q166 216 159 216 Q143 216 143 237 L143 247 Q144 266 178 334 Q237 452 237 473 Q237 479 244 486 Z " />
<glyph glyph-name="onehalf" unicode="&#xbd;" horiz-adv-x="441" d="M273 350 Q282 353 290 353 Q304 353 313 344 Q322 335 322 315 Q322 293 317 280 Q316 276 315 272.5 Q314 269 314 267 L314 265 Q315 265 313.5 262 Q312 259 310 254 Q305 244 305 241 Q305 233 339 232 Q361 231 367.5 229.5 Q374 228 379 220 L386 210 L378 202 Q369 194 321 193 L297 193 Q273 193 263 196.5 Q253 200 253 212 Q253 222 266 251 Q279 280 281 293 Q283 301 282 304.5 Q281 308 279.5 308.5 Q278 309 271 310 Q254 311 254 326 Q254 343 273 350 Z M104 427 Q121 437 127 437 Q131 437 139 432 Q147 426 147 402 Q147 379 140.5 346.5 Q134 314 129 308 Q117 294 104 309 Q99 316 99 321 Q99 327 102 345 Q106 373 104 376 Q103 379 88 377 Q86 377 84 376.5 Q82 376 81 376 Q55 376 55 395 Q55 409 75 414 Q79 415 104 427 Z M210 407 Q220 441 233 441 Q238 441 245 434 Q252 427 252 417 Q252 405 240 375 Q209 299 197 276 Q174 231 166 208 Q160 187 156.5 182 Q153 177 145 177 Q137 177 131 183 Q125 189 125 199 Q125 200 125.5 202 Q126 204 126 205 Q131 235 166 301 Q184 336 210 407 Z " />
<glyph glyph-name="multiply" unicode="&#xd7;" horiz-adv-x="346" d="M149 353 Q150 353 211 384 Q272 415 274 415 Q279 415 286 408 Q292 402 292 397 Q292 385 237 355 Q186 329 186 325 Q186 315 235 298 Q258 290 258 277 Q258 272 253 265 Q246 258 240 258 Q231 258 206 268.5 Q181 279 165 289 L145 303 L121 287 Q103 276 87 264 Q80 258 71 258 Q64 258 57 264.5 Q50 271 50 277 Q50 289 92 315 Q109 324 109 329 Q109 332 79 354 Q50 375 50 386 Q50 396 54 400 Q59 405 65 405 Q79 405 112 379 Q147 353 149 353 Z " />
<glyph glyph-name="divide" unicode="&#xf7;" horiz-adv-x="364" d="M159 210 Q163 214 173 214 Q183 214 187 210 Q191 206 191 193 Q191 175 175 175 Q168 175 163 179 Q154 185 154 197 Q154 205 159 210 Z M58 329 Q63 334 79 334 Q105 334 130 333 Q299 327 306 321 Q319 309 304 296 Q299 291 277 291 Q251 291 227 292 Q62 297 56 303 Q51 307 51.5 315 Q52 323 58 329 Z M164 416 Q168 422 175 422 Q184 422 192 411 Q197 404 197.5 401.5 Q198 399 193 392 Q187 382 176 382 Q158 382 158 400 Q158 408 164 416 Z " />
<glyph glyph-name="oslash" unicode="&#xf8;" horiz-adv-x="375" d="M276 390 Q270 401 266 401 Q261 401 246 377 Q242 371 202 308 Q173 263 173 259 Q173 253 191 253 Q198 253 208 255 Q233 262 256 300.5 Q279 339 279 371 Q279 382 276 390 Z M223 417 Q223 421 214 421 Q205 421 187 413 Q175 407 172.5 403.5 Q170 400 171 393 Q171 392 171.5 390.5 Q172 389 172 388 Q172 380 167 374 Q162 368 155 368 Q140 368 137 325 Q136 315 136 304 Q136 295 140 295 L142 295 Q147 296 185 353 Q223 410 223 417 Z M280 499 Q290 511 306 511 Q316 511 320 504 Q323 498 323 495 Q323 490 310 473 Q289 448 289 442 Q289 440 296 429 Q316 405 316 368 Q316 327 291 283.5 Q266 240 233 223 Q220 216 188 216 Q177 216 155 218 L153 218 Q145 218 128 190 Q113 166 98 136 Q90 120 86 115.5 Q82 111 75 111 Q56 111 56 125 Q56 144 98 214 L118 247 L110 260 Q102 274 102 320 Q102 366 110 381 Q115 390 123 399.5 Q131 409 135 417 Q145 436 169.5 448 Q194 460 225 460 L254 460 L262 473 Q271 488 280 499 Z " />
<glyph glyph-name="increment" unicode="&#x394;" horiz-adv-x="313" d="M206 240 Q158 380 158 381 Q158 385 152.5 385.5 Q147 386 145 382 Q141 374 116.5 314 Q92 254 92 246 Q92 239 189 239 Q206 239 206 240 Z M144 473 Q148 478 158 478 Q168 478 172 473 Q177 465 182 441 Q191 398 214.5 330 Q238 262 254 232 Q263 214 263 209 Q263 207 261 201 Q253 193 250 192 Q246 192 240 193 Q234 194 221 195.5 Q208 197 196 199 Q168 203 135 203 L99 203 L87 216 Q74 229 67 229 Q50 229 50 250 Q50 256 51 259 Q56 274 98 370.5 Q140 467 144 473 Z " />
<glyph glyph-name="uni2011" unicode="&#x2011;" horiz-adv-x="273" d="M69 334 Q78 336 105 336 Q197 336 214 324 Q222 318 222 309 Q222 301 216 295 Q209 289 186 293 Q167 296 111 296 Q70 296 60.5 299 Q51 302 51 315 Q51 330 69 334 Z " />
<glyph glyph-name="endash" unicode="&#x2013;" horiz-adv-x="366" d="M229 360 Q262 365 278 365 Q313 365 313 347 Q313 337 304.5 333 Q296 329 269 326 Q192 317 87 317 Q57 317 55 319 Q49 323 51 334 Q52 347 68.5 351 Q85 355 138 355 Q201 355 229 360 Z " />
<glyph glyph-name="emdash" unicode="&#x2014;" horiz-adv-x="510" d="M58 349 Q63 356 69.5 357 Q76 358 105 358 Q157 358 226 352 Q278 348 313 348 Q325 348 371 350 Q404 353 427 353 Q432 353 437 352 L442 352 Q458 349 458 334 Q458 324 449 319 Q438 314 360 312 Q340 311 306 311 Q268 311 198 316 Q153 320 107 320 L91 320 Q88 320 83.5 319.5 Q79 319 77 319 Q65 319 58 326 Q51 333 51 336.5 Q51 340 58 349 Z " />
<glyph glyph-name="quoteleft" unicode="&#x2018;" horiz-adv-x="153" d="M71 681 Q77 687 84 687 Q92 687 98 681 Q104 675 104 667 Q104 666 103.5 664.5 Q103 663 103 662 Q101 653 91 637 Q81 618 65 618 Q50 618 50 634 Q50 656 71 681 Z " />
<glyph glyph-name="quoteright" unicode="&#x2019;" horiz-adv-x="174" d="M85 666 Q98 679 106 679 Q111 679 117 676 Q124 673 124 664 Q124 654 111 636 Q103 625 95 607 Q87 589 87 580 Q87 575 80.5 569 Q74 563 69 563 Q63 563 56 570 Q51 575 51 588 Q51 630 85 666 Z " />
<glyph glyph-name="quotesinglbase" unicode="&#x201a;" horiz-adv-x="179" d="M54 4 Q59 9 70 7 Q79 6 85.5 -2.5 Q92 -11 116 -52 Q129 -75 129 -81 Q129 -86 123 -92 Q116 -97 112 -97 Q96 -97 63 -39 Q50 -16 50 -6 Q50 0 54 4 Z " />
<glyph glyph-name="quotereversed" unicode="&#x201b;" horiz-adv-x="173" d="M52 559 Q52 572 53 574.5 Q54 577 60 577 Q75 577 102 537 Q121 509 121 484 Q121 471 114 464 Q107 457 101 457 Q87 457 82 485 Q79 505 66 522 Q52 541 52 559 Z " />
<glyph glyph-name="quotedblleft" unicode="&#x201c;" horiz-adv-x="193" d="M111 668 Q123 681 137 671 Q143 666 143 631 Q142 572 129 566 Q119 562 111 568 Q102 574 102 589 Q102 592 102.5 601.5 Q103 611 103 618 Q104 660 111 668 Z M58 674 Q62 679 69 679 Q80 679 86 669 Q90 659 90 633 L90 620 Q89 582 82 574 Q68 560 57 573 Q51 581 51 607 L51 624 Q52 668 58 674 Z " />
<glyph glyph-name="quotedblright" unicode="&#x201d;" horiz-adv-x="215" d="M122 687 Q132 706 136 709 Q140 712 145 712 Q153 712 159 705 Q165 698 165 688 Q165 681 154 659.5 Q143 638 135 629 Q127 621 119 621 Q110 621 105 631 Q98 647 87 626 Q80 612 67 612 Q50 612 50 624 Q50 634 59 660 Q69 690 74 697.5 Q79 705 87 705 Q95 705 101 699 Q107 693 107 685 Q107 684 106.5 682.5 Q106 681 106 680 Q105 677 105 674 Q105 669 108 669 Q115 669 122 687 Z " />
<glyph glyph-name="quotedblbase" unicode="&#x201e;" horiz-adv-x="218" d="M60 560 Q66 563 70 563 Q85 563 98 507 Q106 473 106 465 Q106 451 92 450 L89 450 Q73 450 59 503 Q52 530 52 544 Q52 557 60 560 Z M110 571 Q121 582 136 574 Q142 571 154 541.5 Q166 512 166 501 Q166 482 147 482 Q137 482 131.5 490 Q126 498 115 524 Q104 550 104 559 Q104 565 110 571 Z " />
<glyph glyph-name="uni201f" unicode="&#x201f;" horiz-adv-x="211" d="M56 713 Q62 720 70 720 Q86 720 91 694 Q91 691 93.5 678 Q96 665 96 659 Q96 639 81 639 Q64 639 55 671 Q50 689 50 697 Q50 707 56 713 Z M111 728 Q116 734 125 734 Q135 734 141.5 721.5 Q148 709 155 676 Q161 644 161 638 Q161 632 156 627 Q149 620 139 623 Q123 627 115 675 Q111 702 108 704 Q104 706 105 714.5 Q106 723 111 728 Z " />
<glyph glyph-name="bullet" unicode="&#x2022;" horiz-adv-x="186" d="M73 356 Q81 358 85 358 Q105 358 120 339 Q135 320 135 298 Q135 281 124 270 Q113 260 98 260 Q77 260 64 276.5 Q51 293 51 319 Q51 347 73 356 Z " />
<glyph glyph-name="onedotenleader" unicode="&#x2024;" horiz-adv-x="138" d="M57 169 Q63 176 71 176 Q77 176 82 171 Q87 166 87 158 Q87 140 72 140 Q64 140 57 146 Q46 156 57 169 Z " />
<glyph glyph-name="twodotenleader" unicode="&#x2025;" horiz-adv-x="226" d="M147 147 Q143 151 143 159.5 Q143 168 147 172 Q151 176 159 176 Q175 176 175 159 Q175 152 169.5 147 Q164 142 158 142 Q152 142 147 147 Z M67 136 Q59 136 55 140 Q51 144 51 151 Q51 160 57.5 168 Q64 176 71 176 Q77 176 84 169 Q91 162 91 157 Q91 148 83.5 142 Q76 136 67 136 Z " />
<glyph glyph-name="ellipsis" unicode="&#x2026;" horiz-adv-x="288" d="M201 155 Q201 165 205 169 Q209 173 219 173 Q229 173 233 169 Q237 165 237 159 Q237 151 231.5 144 Q226 137 217 137 Q201 137 201 155 Z M131 167 Q134 174 146 174 Q155 174 160 169 Q164 165 164 155 Q164 137 149 137 Q142 137 134 143 Q124 153 131 167 Z M62 169 Q68 172 73 172 Q82 172 88.5 166.5 Q95 161 95 153 Q95 145 89 140 Q80 132 70 132 Q65 132 59 135 Q51 141 51 150 Q51 163 62 169 Z " />
<glyph glyph-name="uni2027" unicode="&#x2027;" horiz-adv-x="146" d="M59 304 Q67 312 75 312 Q82 312 88 306 Q94 300 94 293 Q94 284 87 277 Q79 269 67 269 Q59 269 55 273 Q51 277 51 284 Q51 294 59 304 Z " />
<glyph glyph-name="perthousand" unicode="&#x2030;" horiz-adv-x="510" d="M416 279 Q408 287 399 274 Q391 264 391 250 Q391 238 397 237 L400 237 Q407 237 413.5 247.5 Q420 258 420 268 Q420 275 416 279 Z M306 281 Q307 302 303 302 Q292 302 292 289 Q292 280 285 271 Q277 261 277 243 Q277 229 283 229 L284 229 Q291 231 297.5 247 Q304 263 306 281 Z M262 321 Q271 344 298 344 Q327 344 339 318 Q345 306 349 306 Q352 306 362 314 Q372 322 395 323 L405 323 Q418 323 433 315 Q449 306 453 298.5 Q457 291 457 271 Q457 240 438 219.5 Q419 199 390 199 Q379 199 367 209.5 Q355 220 354 230 Q352 238 345 239 Q341 240 338 237 Q335 234 331 225 Q324 211 312 199 Q300 187 283 187 Q265 187 253 200 L241 214 L241 252 Q241 291 249 301 Q257 311 262 321 Z M245 458 Q248 462 257 462 Q271 462 275 455 Q276 454 276 449 Q276 438 265 404 Q241 328 194 247 Q174 211 167 201.5 Q160 192 154 192 Q148 192 141.5 198.5 Q135 205 135 212 Q135 220 159 262 Q205 342 225 404 Q242 455 245 458 Z M139 445 Q132 448 130.5 448 Q129 448 121 442 Q115 437 102 439 Q94 440 92.5 439 Q91 438 91 427 Q91 398 114 398 L116 398 Q129 399 137 411 Q145 424 145 433 Q145 442 139 445 Z M103 479 Q112 485 126 485 Q157 485 173 467 Q181 458 181 432 Q181 404 170 389 Q149 360 115 360 Q81 360 64 383 Q54 397 54 431 Q54 453 59 462 Q67 477 82 477 Q87 477 89 476 Q96 474 103 479 Z " />
<glyph glyph-name="uni2031" unicode="&#x2031;" horiz-adv-x="663" d="M455 286 Q453 288 450.5 290 Q448 292 446 294 L444 295 Q436 295 436 258 Q436 242 437.5 238 Q439 234 444 233 L446 233 Q454 233 459 241.5 Q464 250 464 262 Q464 277 455 286 Z M570 293 Q560 305 554 295 Q548 277 548 254 Q548 240 553 240 Q561 240 567.5 253.5 Q574 267 574 280 Q574 287 570 293 Z M315 247 Q321 247 326.5 260 Q332 273 332 289 Q332 305 326 305 Q316 305 311 266 Q309 247 315 247 Z M269 317 Q269 331 282 344 Q295 357 308 357 Q321 357 336 348.5 Q351 340 359 329 Q366 316 370 316 Q372 316 392 326 Q410 335 428 335 Q461 335 485 311 Q500 297 500 286 Q500 280 501.5 278 Q503 276 507 277 Q513 278 514 305 Q515 326 520.5 334 Q526 342 542 342 Q544 342 547.5 341.5 Q551 341 554 341 Q605 336 610 286 L610 277 Q610 243 591 219.5 Q572 196 545 196 Q526 196 518.5 205 Q511 214 511 236 Q511 258 506 258 Q501 258 499 244 Q496 223 479 207.5 Q462 192 442 192 Q432 192 420 200.5 Q408 209 403 218 Q398 226 398 241 Q398 253 393 253 Q390 253 382 247 Q374 241 370 241 L369 241 Q362 242 351 225 Q331 193 306 193 Q292 193 281 205 Q273 214 273 232 Q273 248 274 260 Q274 265 274.5 274.5 Q275 284 275 288 Q275 306 273 308 Q269 311 269 317 Z M136 425 Q137 428 137 432 Q137 447 123 447 Q112 447 101 438 Q90 429 90 417 Q90 408 96 400.5 Q102 393 109 393 Q115 393 124.5 404.5 Q134 416 136 425 Z M92 478 Q106 485 123 485 Q145 485 159.5 471.5 Q174 458 174 437 Q174 403 154 379.5 Q134 356 108 356 Q92 356 80 364 Q54 378 54 416 L54 422 Q55 449 66 460 Q76 470 92 478 Z M274 499 Q278 503 287.5 503 Q297 503 302 499 Q306 495 306 490 Q306 480 284 433 Q249 356 201 274 Q153 192 142 189 L139 189 Q132 189 126.5 194.5 Q121 200 121 207 Q121 210 122 212 Q124 218 157 274 Q210 362 248 445 Q268 490 274 499 Z " />
<glyph glyph-name="uni2038" unicode="&#x2038;" horiz-adv-x="281" d="M114 87 Q123 101 137 100 Q147 99 152.5 92 Q158 85 180 45 Q212 -13 221 -22 Q234 -36 231 -44 Q230 -50 224 -55.5 Q218 -61 213 -61 Q202 -61 182.5 -36.5 Q163 -12 146 25 Q139 38 135 38 Q130 38 112 7 Q84 -39 68 -39 Q62 -39 56 -33 Q50 -27 50 -21 Q50 -12 59 -3 Q66 4 86 40 Q97 60 114 87 Z " />
<glyph glyph-name="guilsinglleft" unicode="&#x2039;" horiz-adv-x="211" d="M78 320 Q100 349 100 353 Q100 357 107 364 Q114 371 121 371 Q129 371 135 362 Q139 357 139 351 Q139 341 116 308 Q96 279 96 273 Q96 266 116 241 Q158 189 158 177 Q158 160 143 160 Q139 160 137 161 Q131 163 97.5 203.5 Q64 244 57 258 Q53 266 53 274 Q53 288 78 320 Z " />
<glyph glyph-name="guilsinglright" unicode="&#x203a;" horiz-adv-x="218" d="M94 414 Q100 423 108 423 Q119 423 125 411 Q126 409 146 377 Q166 345 166 336 Q166 325 131 279 Q97 235 91 222 Q83 206 72 206 Q64 206 58 215 Q54 220 54 227 Q54 242 89 288 Q122 332 122 336 Q122 343 108 364 Q90 392 90 403 Q90 409 94 414 Z " />
<glyph glyph-name="arrowright" unicode="&#x2192;" horiz-adv-x="399" d="M256 362 Q260 369 269 369 Q276 369 309 344 Q342 319 345 312 Q348 304 348 296 Q348 276 332 247 Q314 213 303 213 Q301 213 297 215 Q290 219 290 226 Q290 234 300 253 Q312 275 308 279 Q304 283 182 285 Q60 287 57 290 Q52 294 52.5 300.5 Q53 307 60 311 Q69 317 175 318 Q282 319 282 325 Q282 328 269 336 Q254 344 254 354 Q254 356 256 362 Z " />
<glyph glyph-name="arrowboth" unicode="&#x2194;" horiz-adv-x="446" d="M343 340 Q343 344 337.5 353 Q332 362 332 367 Q332 372 336 376 Q340 380 344 380 Q353 380 369 361 Q394 332 394 319 Q394 312 371 278 Q349 245 341 245 Q333 245 328.5 252 Q324 259 327 266 Q327 267 335.5 280 Q344 293 344 298 Q344 300 343 301 Q342 302 329 302 Q304 302 284 300 Q268 299 229.5 297 Q191 295 167.5 293 Q144 291 125 287 Q119 286 117.5 282.5 Q116 279 119 276 Q122 273 129 272 Q151 269 151 256 Q151 253 149 249 Q144 241 127 242 Q110 243 86 255 Q62 267 56 276 Q52 284 52 286 Q52 296 90 331 Q124 362 132 362 Q138 362 143 354 Q147 348 139 337 Q125 318 137 319 Q138 319 140 320 Q146 321 207 325 Q260 328 286.5 330 Q313 332 326.5 333.5 Q340 335 341.5 336 Q343 337 343 340 Z " />
<glyph glyph-name="arrowdblright" unicode="&#x21d2;" horiz-adv-x="468" d="M67 354 Q70 358 100 358 Q132 358 278 352 Q323 350 335 346.5 Q347 343 347 333 Q347 326 341.5 323.5 Q336 321 319 321 Q315 321 267 323 Q216 326 130 328 Q81 330 73 331.5 Q65 333 64 339 Q62 349 67 354 Z M275 412 Q275 416 279 420 Q283 424 288 424 Q297 424 329 401 Q346 388 388 360 Q408 347 412 342 Q416 337 416 325 Q416 316 397 299 Q379 283 350.5 249.5 Q322 216 315 201 Q306 184 299 184 Q294 184 288 190 Q283 194 283 201 Q283 211 304 241 Q318 259 318 266 Q318 270 313 270 Q308 270 305 269 Q273 263 107 263 Q59 263 57 265 Q52 268 52 275.5 Q52 283 56 288 Q61 293 146 293 Q235 293 295 299 Q355 304 368 314 Q380 323 380 326 Q380 330 367 337 Q352 346 314 374 Q275 402 275 412 Z " />
<glyph glyph-name="uni2218" unicode="&#x2218;" horiz-adv-x="286" d="M179 426 Q168 431 153 431 Q120 431 106 405 Q101 394 92 391 Q83 387 83 375 Q83 350 103 342 Q116 337 129 337 Q167 337 189 367 Q203 386 203 399 Q203 416 179 426 Z M76 425 Q107 454 122 459 Q137 464 150 464 Q187 464 216 437 Q228 425 230.5 420 Q233 415 233 402 Q233 368 203 336 Q175 307 130 307 Q93 307 72.5 324 Q52 341 52 372 Q52 382 53 388 Q57 407 76 425 Z " />
<glyph glyph-name="radical" unicode="&#x221a;" horiz-adv-x="526" d="M245 432 Q257 434 264 434 Q279 434 300 430 Q334 424 376 422 Q388 421 406 421 Q425 421 443 426 Q461 432 467 427 Q472 422 472 416 Q472 406 462 400 Q453 393 388 393 Q312 393 267 405 L265 405 Q255 405 240 327 Q215 191 206 170 Q199 154 188 154 Q178 154 168 165 Q152 184 147 239 Q143 274 139 281 Q135 285 98 285 Q53 285 53 297 Q53 299 55 305 Q58 312 64.5 313.5 Q71 315 101 315 L106 315 Q151 315 161.5 306.5 Q172 298 176 255 Q179 222 184 222 Q190 222 216 361 Q230 427 245 432 Z " />
<glyph glyph-name="infinity" unicode="&#x221e;" horiz-adv-x="440" d="M192 373 Q181 391 177 395 Q173 399 164 400 L162 400 Q144 400 122 383 Q100 366 90 344 Q85 334 85 323 Q85 322 87 302 Q94 252 111 245 Q112 245 113 244.5 Q114 244 115 244 Q137 244 167 281 Q208 333 208 343 Q208 345 192 373 Z M344 419 Q330 433 318 433 Q312 433 306 430 Q300 426 282 401 Q264 376 256 360 L247 342 L256 333 Q264 324 279.5 316.5 Q295 309 306 309 Q323 309 340.5 335.5 Q358 362 358 388 Q358 406 344 419 Z M289 455 Q300 463 321 463 Q337 463 346 458 Q356 453 368 440 Q380 427 383 418 Q388 403 388 390 Q388 357 370 324.5 Q352 292 334 285 Q324 280 307 280 Q271 280 242 304 Q228 314 227 311 Q227 310 224 306 Q221 302 216 296 Q211 290 207 284 Q158 214 118 214 Q108 214 96 219 Q76 228 60 275 Q52 296 52 318 Q52 353 85 389 Q123 430 161 430 Q182 430 196 418 Q208 407 217 392 Q224 378 230 380 Q235 382 235 385 Q234 390 257 419.5 Q280 449 289 455 Z " />
<glyph glyph-name="approxequal" unicode="&#x2248;" horiz-adv-x="497" d="M125 303 Q142 312 161 312 L178 312 Q200 311 211 308 Q222 305 249 291 Q289 271 319 270 L331 270 Q374 270 410 293 Q426 305 435 305 Q445 305 445 290 Q445 272 400 252 Q385 244 374.5 242.5 Q364 241 329 241 L279 241 L237 263 Q195 284 177 284 Q142 284 107 255 Q93 244 88 244 Q84 244 80 248 Q76 252 76 258 Q76 279 125 303 Z M129 432 Q142 437 162 437 Q186 437 200 430 Q219 422 243 401 Q286 365 319 365 Q343 365 380 375 Q417 384 422 384 Q428 384 432 380 Q439 373 439 369 Q439 357 382 344 Q347 336 325 336 L312 336 Q286 337 270.5 344 Q255 351 228 373 Q185 408 165 408 Q164 408 161 407.5 Q158 407 157 407 Q141 405 120.5 392.5 Q100 380 90 367 Q79 353 67 354 Q54 356 54 365 Q54 374 65 387 Q93 419 129 432 Z " />
<glyph glyph-name="notequal" unicode="&#x2260;" horiz-adv-x="421" d="M232 499 Q243 510 254 497 Q259 492 259 478 Q259 455 248 427 Q239 402 239 396 Q239 390 284 389 Q355 386 355 366 Q355 362 352 356 Q347 348 338 351 Q299 360 269 360 L256 360 L222 359 L212 338 Q202 316 202 310 Q202 304 206 303 Q210 302 231 302 Q300 302 342 291 Q367 283 367 273 Q367 270 362 263 Q359 258 353 258 Q350 258 322 263 Q285 270 235 270 L183 271 L161 218 Q140 166 140 151 Q140 130 125 130 Q116 130 111 141 Q109 147 109 152 Q109 174 132 230 Q147 268 147 271 Q147 276 118 276 Q89 276 83 283 Q76 290 81 297 Q86 309 125 309 L136 309 L164 307 L173 327 Q183 347 183 356 Q183 364 172 364 Q91 367 74 369 Q57 371 56 378 Q54 386 60 392 Q64 397 94 397 Q107 397 136.5 396 Q166 395 177 395 Q199 395 201 398 Q208 406 218 435.5 Q228 465 228 477 Q228 495 232 499 Z " />
<glyph glyph-name="Adieresis" unicode="&#xc4;" horiz-adv-x="381" d="M250 297 Q250 302 225.5 348 Q201 394 197 394 Q193 394 165 349.5 Q137 305 137 299 Q137 289 224 289 Q243 289 246.5 290 Q250 291 250 297 Z M176 443 Q182 449 190 449 Q202 449 213 438 Q243 406 301 282 Q330 219 343.5 197 Q357 175 369 170 Q381 165 381 155 Q381 146 375 139 Q369 132 362 132 Q332 132 291 215 L272 252 L246 251 Q210 251 165 254 L112 257 L98 236 Q94 229 80 205.5 Q66 182 60 172 Q32 124 18 124 Q14 124 10 127 Q0 133 0 140 Q0 148 10 164 Q58 244 58 251 Q58 253 57 254 Q53 258 53 267 Q53 280 59 286 Q64 291 76 293 Q88 294 119 347 Q150 397 161 419 Q167 431 176 443 Z M257 543 Q260 545 268 545 Q277 545 283.5 540 Q290 535 290 527 Q290 521 282 514.5 Q274 508 267 508 Q258 508 252.5 513.5 Q247 519 247 527 Q247 539 257 543 Z M94 550 Q102 553 108 553 Q130 553 130 535 Q130 526 120.5 519.5 Q111 513 100 513 Q90 513 84 519 Q79 526 79 531 Q79 542 94 550 Z " />
<glyph glyph-name="Odieresis" unicode="&#xd6;" horiz-adv-x="384" d="M339 344 Q322 380 287 406 Q252 432 208 433 L200 433 Q159 433 139 413 Q128 402 120 399 Q111 396 111 388 Q111 381 106 376 Q102 372 94.5 371.5 Q87 371 85 375 Q77 388 61 368 Q52 357 43 328 Q35 302 35 284 Q35 265 45 243 Q54 225 77 204 Q100 183 124 171 Q168 150 208 150 Q272 150 317 198 Q335 217 343 243 Q349 264 349 288 Q349 323 339 344 Z M174 468 Q179 469 195 469 Q225 469 248 464 Q284 455 317.5 427 Q351 399 369 363 Q379 343 381 333.5 Q383 324 384 296 L384 283 Q384 216 344 173 Q312 138 263 122 Q243 115 217 115 L198 115 Q158 116 131 127 Q56 157 15 224 Q1 247 0 273 L0 285 Q0 323 17 360 Q43 416 80 416 Q82 416 84 415.5 Q86 415 88 415 Q95 413 97.5 414.5 Q100 416 103 424 Q108 438 128.5 450.5 Q149 463 174 468 Z M286 545 Q290 550 298 550 Q306 550 312 545 Q318 540 318 533 Q318 528 314 524 Q308 517 298 517 Q280 517 280 532 Q280 538 286 545 Z M84 570 Q88 572 97 572 Q109 572 118.5 566.5 Q128 561 128 553 Q128 545 118.5 539.5 Q109 534 98 534 Q84 534 78 543 Q73 550 75 559 Q77 568 84 570 Z " />
<glyph glyph-name="Udieresis" unicode="&#xdc;" horiz-adv-x="254" d="M198 468 Q207 474 212 471 L218 469 Q235 462 247 421 Q254 396 254 334 Q254 286 249 258 Q236 194 217 168 Q199 145 170 145 Q132 145 97 183 Q25 263 4 384 Q0 405 0 420 Q0 443 16 444 L19 444 Q28 444 32 434.5 Q36 425 40 399 Q50 322 92.5 252.5 Q135 183 169 183 Q177 183 182 187 Q196 196 206 241 Q216 286 216 342 Q216 416 198 438 Q191 446 191 455 Q191 464 198 468 Z M30 526 Q37 536 50 536 Q58 536 64 531 Q70 526 70 518 Q70 509 62 502.5 Q54 496 44 496 Q33 496 28 504 Q23 512 23 514.5 Q23 517 30 526 Z M173 552 Q180 558 188 558 Q195 558 202 551 Q208 545 208 538 Q208 530 201.5 524 Q195 518 185 518 Q176 518 170.5 524 Q165 530 165 538 Q165 546 173 552 Z " />
<glyph glyph-name="adieresis" unicode="&#xe4;" horiz-adv-x="229" d="M56 375 Q66 380 85 380 Q112 380 130 372 Q147 364 178.5 332.5 Q210 301 218 284 Q228 263 228 237 Q228 172 176 140 Q160 130 138 130 Q92 130 66 164 Q55 180 55 200 Q55 214 61 225 Q68 236 86.5 249.5 Q105 263 123 270 Q141 277 152 277 Q163 277 169 268 Q175 258 170 250 Q164 241 152 239 Q139 237 121 226.5 Q103 216 97 207 Q90 198 95 189 Q100 181 113 174.5 Q126 168 137 168 Q157 168 174 189 Q191 210 191 235 Q191 268 148 310 Q112 343 92 343 Q81 343 72 334 Q59 320 46 331 Q39 338 39 347 Q39 366 56 375 Z M152 442 Q146 442 138.5 449 Q131 456 131 462 Q131 468 138.5 475 Q146 482 152 482 Q158 482 164.5 475 Q171 468 171 462 Q171 455 165 448.5 Q159 442 152 442 Z M6.5 455 Q0 461 0 469 Q0 477 6 483 Q12 489 19 489 Q26 489 35 483 Q42 477 42 469 Q42 461 37 455 Q32 449 23 449 Q13 449 6.5 455 Z " />
<glyph glyph-name="odieresis" unicode="&#xf6;" horiz-adv-x="223" d="M185 272 Q180 293 151 311 Q122 329 91 329 Q85 329 73 327 Q61 324 59 321 Q57 318 61 310 Q66 302 61 287 Q57 271 57 262 Q57 227 76 195 Q95 163 118 163 Q142 163 164.5 194.5 Q187 226 187 257 Q187 262 185 272 Z M55 362 Q67 366 89 366 Q129 366 153 355 Q191 337 213 302 Q223 285 223 254 Q223 224 213 201 Q178 126 118 126 Q97 126 85 131 Q56 144 34 191 Q23 214 22 253 Q21 290 11 296 Q3 301 1 309 L0 311 Q0 313 0 314 Q0 327 16 341 Q32 355 55 362 Z M199 429 Q181 429 181 447 Q181 465 199 465 Q218 465 218 447 Q218 429 199 429 Z M35 468 Q41 471 50 471 Q64 471 71 465 Q83 455 69 439 Q62 432 47 432 Q32 432 28 438 Q24 444 24 449 Q24 463 35 468 Z " />
<glyph glyph-name="udieresis" unicode="&#xfc;" horiz-adv-x="249" d="M187 384 Q192 387 196 387 Q203 387 216 374 Q233 357 239.5 339 Q246 321 248 286 Q249 275 249 259 Q249 238 245 225 Q233 179 209.5 153 Q186 127 156 127 Q149 127 145 128 Q109 134 72.5 173 Q36 212 10 273 Q0 294 0 319 Q0 337 6 343 Q12 349 20 349 Q28 349 34.5 344 Q41 339 41 332 Q41 329 39 325 Q37 319 37 315 Q37 299 55 264 Q80 214 110 187 Q133 165 157 165 Q176 165 191 187.5 Q206 210 213 248 Q215 256 215 271 Q215 320 190 350 Q181 360 181 372 Q181 381 187 384 Z M160 465 Q173 476 185 464 Q194 455 186 444 Q181 436 173 436 Q166 436 160 441 Q154 446 154 453 Q154 459 160 465 Z M11 481 Q17 483 21 483 Q32 483 43.5 476 Q55 469 55 460 Q55 444 30 444 Q19 444 11 448 Q1 453 1 464 Q1 476 11 481 Z " />
<glyph glyph-name="afii10023" unicode="&#x401;" horiz-adv-x="366" d="M6 556 Q12 562 26 562 Q43 562 81 555 Q96 552 138.5 548.5 Q181 545 214 540.5 Q247 536 254 530 Q260 524 260 514 Q260 498 242 498 Q238 498 230 500 Q229 500 70 517 Q55 519 53 518.5 Q51 518 52 511 Q65 464 72 412 L75 392 L113 390 Q176 387 194 387 Q227 387 238 382.5 Q249 378 249 366 Q249 356 239.5 353 Q230 350 192 350 L156 350 L75 352 L75 284 Q75 184 86 168 Q88 165 93 165 Q103 165 154 177 Q247 199 302 205 Q323 207 331 213 Q346 224 359 211 Q366 204 366 188 Q366 178 362 175 Q356 171 323 169 Q263 166 142 135 Q108 126 88 126 Q68 126 59 135 Q41 155 38 267 Q36 346 32 361 Q28 375 32 382 Q35 386 35 397 Q35 400 33 416 Q29 445 19.5 485 Q10 525 5 530 Q-7 543 6 556 Z M208 633 Q217 643 230 633 Q237 627 237 621 Q237 615 232 609.5 Q227 604 220 604 Q213 604 208 609 Q196 620 208 633 Z M74 646 Q78 650 86 650 Q102 650 102 632 Q102 619 90 618 Q80 616 75 621 Q70 625 70 633 Q70 641 74 646 Z " />
<glyph glyph-name="afii10017" unicode="&#x410;" horiz-adv-x="443" d="M296 320 Q296 324 250.5 413.5 Q205 503 202 503 Q198 503 182 457 Q168 412 149 368 Q134 333 134 324 Q134 322 178.5 319.5 Q223 317 259 317 Q296 317 296 320 Z M183 572 Q190 580 201 580 Q212 580 216 570 Q220 560 267 467 Q314 374 328 348 Q342 322 351 321 Q371 318 371 299 L371 293 Q371 291 370.5 289 Q370 287 370 286 Q370 279 375.5 271.5 Q381 264 406 236 Q443 193 443 181 Q443 174 433 169 Q429 167 426 167 Q417 167 399.5 185.5 Q382 204 331 266 L320 279 L215 281 L109 284 L98 261 Q90 244 61 192 Q55 182 47.5 169 Q40 156 36 149 Q32 142 32 141 Q29 135 20.5 134.5 Q12 134 6 140 Q0 144 0 152 Q0 164 25 207 Q75 294 109 371 Q121 398 148 475 Q175 552 175 559 Q175 562 183 572 Z " />
<glyph glyph-name="afii10018" unicode="&#x411;" horiz-adv-x="340" d="M20 531 Q29 532 64 539.5 Q99 547 135.5 552.5 Q172 558 195 558 Q234 558 234 541 Q234 522 198 522 Q177 522 116.5 510.5 Q56 499 51 494 Q46 489 54 469 Q68 431 86.5 347 Q105 263 108 222 Q110 186 111 182 L113 169 L140 171 Q182 175 229.5 193.5 Q277 212 291 231 Q303 248 303 262 Q303 289 266 306 Q245 315 210 315 Q173 315 155 305 Q135 295 130 295 Q123 295 118 303 Q112 312 112.5 314.5 Q113 317 122 327 Q144 354 216 354 Q242 354 263 348 Q306 335 329 305 Q340 291 340 264 Q340 246 334 231 Q314 178 217 148 Q197 142 154 135 Q111 128 95 128 L90 128 Q81 131 77.5 142.5 Q74 154 72 190 Q68 252 48.5 339 Q29 426 6 487 Q0 502 0 512 Q0 528 20 531 Z " />
<glyph glyph-name="afii10019" unicode="&#x412;" horiz-adv-x="339" d="M230 497 Q230 510 218.5 519.5 Q207 529 193 530 L188 530 Q161 530 107 516.5 Q53 503 46 494 Q44 492 44 488 Q44 481 54 451 Q71 397 84.5 316.5 Q98 236 98 188 Q98 163 101 163 Q113 163 145.5 173 Q178 183 195 191 Q220 203 250.5 226.5 Q281 250 292 266 Q303 282 303 296 Q303 310 293 320 Q279 335 241 344 Q203 353 159 353 L153 353 L143 353 Q125 353 119 356.5 Q113 360 113 369 Q113 383 151 405 Q182 423 206 451 Q230 479 230 497 Z M170 566 Q171 568 182 568 Q215 568 229 560 Q267 540 267 496 Q267 478 258 460 Q252 445 227 419 Q204 392 204 390 Q204 386 217 386 Q244 386 279.5 371 Q315 356 328 339 Q338 325 339 300 L339 290 Q339 270 331 256.5 Q323 243 298 219 Q256 179 216.5 158.5 Q177 138 120 128 Q115 127 108.5 126 Q102 125 98.5 124.5 Q95 124 92 124 Q88 124 80 128 Q72 134 73 147 Q73 148 73.5 150 Q74 152 74 153 Q74 159 67.5 168.5 Q61 178 61 188 Q61 224 48 301 Q35 378 23 419 Q11 459 6 480 Q0 502 0 508 Q0 514 4 519 Q10 529 16 529 Q22 529 53 540 Q121 562 153 562 Q168 562 170 566 Z " />
<glyph glyph-name="afii10020" unicode="&#x413;" horiz-adv-x="291" d="M188 564 Q191 567 234 567 Q278 567 285 560 Q298 549 285 537 Q276 530 114 523 Q45 519 45 518 Q45 515 60 455 Q83 367 93 255 Q98 197 103 171 Q105 165 105 155 Q105 135 89 133 L84 133 Q71 133 66 155.5 Q61 178 54 260 Q49 326 40 372.5 Q31 419 5 513 Q0 533 0 536 Q0 540 4 548 L9 557 L98 560 Q186 562 188 564 Z " />
<glyph glyph-name="afii10021" unicode="&#x414;" horiz-adv-x="492" d="M330 513 Q327 516 317 516 Q306 516 284 513 Q267 510 203 510 L142 510 L144 465 Q145 456 145 437 Q145 358 132 302 Q127 280 127 274 Q127 269 144 269 Q166 269 225 276 Q358 291 363 294 Q365 295 365 297 Q365 317 350 411.5 Q335 506 330 513 Z M277 550 Q310 553 325 553 Q353 553 358 547 Q363 541 375 484.5 Q387 428 396 365 Q405 302 407 298 Q409 294 436 294 Q462 294 467.5 286.5 Q473 279 475 241 Q477 209 485 177 Q492 147 492 141 Q492 131 485 124 Q477 117 468 123 Q449 134 440 218 Q437 245 435 250.5 Q433 256 426 257 Q416 259 410 251 Q404 244 395 244 Q385 244 379 249 Q372 254 366 254 Q354 254 229 239 Q184 234 142 234 L110 234 Q104 234 94 234.5 Q84 235 81 235 Q61 235 56.5 230.5 Q52 226 50 208 Q47 191 37.5 174 Q28 157 17 157 Q12 157 7 161 Q0 167 0 176 Q0 184 5 193 Q13 205 15 234 Q17 260 21 267 Q24 271 55 273 L85 274 L90 289 Q107 343 107 442 Q107 476 104 503 Q103 511 103 524 Q103 541 116.5 544 Q130 547 188 547 Q260 547 277 550 Z " />
<glyph glyph-name="afii10022" unicode="&#x415;" horiz-adv-x="332" d="M9 553 Q20 561 39 561 Q50 561 135 556 Q297 546 307 537 Q314 530 314 522 Q314 515 307 508 Q300 501 285 506 Q272 509 232.5 512 Q193 515 147 517.5 Q101 520 91 521 Q65 523 60 523 Q49 523 49 517 Q49 510 54 501 Q68 473 80 404 Q83 380 92 359 L191 361 Q225 362 263 362 Q293 362 297 357 Q303 351 303 343 Q303 331 287.5 328.5 Q272 326 196 325 Q100 323 96 322 Q91 320 93 308 Q93 307 95 286 Q97 265 98.5 244 Q100 223 102.5 204 Q105 185 107 183 Q112 178 147 178 Q173 178 246 183 Q259 184 273.5 185 Q288 186 295.5 186.5 Q303 187 308 187 Q320 187 326 183 Q338 172 327 158 Q321 151 257 146 Q187 141 148 141 Q94 141 84 147 Q73 152 69 170 Q65 188 60 253 Q49 409 15 503 L0 545 L9 553 Z " />
<glyph glyph-name="afii10024" unicode="&#x416;" horiz-adv-x="486" d="M194 570 Q206 584 219 570 Q225 563 234 517 Q243 471 245 434 Q248 395 252 395 Q256 395 269 420 Q277 437 319 495 Q354 543 354 551 L354 552 L353 554 Q353 560 359 567 Q365 574 371 574 Q392 574 392 547 Q392 535 387 526 Q383 518 351 474 Q311 417 307 410 L293 387 L346 334 Q433 245 469 228 Q486 220 486 209 Q486 199 473 192 Q468 189 465 189 Q460 189 442 200 Q403 224 319 308 Q258 369 253 369 Q251 369 251 335 Q251 236 258 199 Q260 187 260 183 Q260 167 247 163 Q245 162 241 162 Q236 162 232.5 164.5 Q229 167 226.5 172 Q224 177 222 183 Q220 189 219 198 Q218 207 217 214.5 Q216 222 216 234 Q216 246 215.5 253.5 Q215 261 215 273.5 Q215 286 215 293 Q214 381 207 381 Q205 381 200 367 Q189 334 156.5 257.5 Q124 181 108 149 Q83 98 61 64 Q39 30 29 28 Q18 26 13 32 Q6 38 6 48 Q6 66 23 81 Q45 101 88 196 Q107 236 136.5 310.5 Q166 385 166 391 Q166 401 102 448 Q0 524 0 550 Q0 556 2 559 Q7 567 17 569 Q28 570 36 556 Q49 536 138 469 Q177 440 193 424 Q200 417 206 417 Q210 417 210 428 Q210 448 197 512 Q189 557 189 559 Q189 565 194 570 Z " />
<glyph glyph-name="afii10025" unicode="&#x417;" horiz-adv-x="361" d="M99 600 Q119 605 155 605 Q200 605 228 598 Q277 585 303 559.5 Q329 534 329 501 Q329 483 322 470 Q315 456 292 434 Q269 412 248 399 Q225 384 225 381 Q225 379 252 370 Q360 338 360 270 Q360 253 355 239 Q342 199 290 137.5 Q238 76 185 37 Q134 -1 65 -17 Q29 -26 16 -26 Q8 -26 4 -22 Q0 -17 0 -7.5 Q0 2 4 4 Q13 8 53 18 Q101 30 119 39 Q175 65 245.5 142.5 Q316 220 324 263 Q324 264 324.5 266.5 Q325 269 325 270 Q325 293 299 310 Q244 345 169 345 Q147 345 139.5 348 Q132 351 132 360 L132 365 Q133 375 159 388 Q185 401 224 427 Q294 472 294 503 Q294 518 278 533 Q255 555 216 564 Q189 571 158 571 Q116 571 91 558 Q80 552 71 558 Q62 564 62 571 Q62 590 99 600 Z " />
<glyph glyph-name="afii10026" unicode="&#x418;" horiz-adv-x="411" d="M6 627 Q18 640 30 628 Q35 622 46 576 Q57 530 63 488 Q77 389 84 272 Q89 200 92 200 Q101 200 192 352 Q235 426 273 502 Q321 597 326 599 Q330 601 337 601 Q358 601 366.5 545 Q375 489 383 317 Q390 170 405 145 Q414 131 410 124 Q401 109 385 113 Q367 118 358.5 166.5 Q350 215 344 348 Q336 520 328 520 Q323 520 314 498 Q264 387 158 225 Q119 166 106 133 Q95 107 78 107 Q73 107 71 108 Q61 112 57 130.5 Q53 149 50 212 Q38 434 10 561 Q0 602 0 613 Q0 621 6 627 Z " />
<glyph glyph-name="afii10027" unicode="&#x419;" horiz-adv-x="328" d="M219 592 Q229 607 233 610.5 Q237 614 246 614 Q268 614 274.5 579.5 Q281 545 284 417 Q289 222 303 158 Q307 139 317 132 Q328 124 328 113 Q328 104 321.5 98 Q315 92 304 92 Q287 92 277.5 113 Q268 134 261 187 Q248 284 248 428 Q248 545 239 545 Q222 545 146 336 Q109 231 89.5 195.5 Q70 160 51 160 Q38 160 31 169 Q25 176 25 204 Q25 205 27 291 Q28 316 28 359 Q28 492 3 555 Q-1 567 6 574 Q15 583 24 579 Q43 573 57 500 Q63 466 63 355 Q63 245 67 245 Q72 245 113 357 Q170 516 219 592 Z M29 713 Q37 719 40 719 Q42 719 65 710 Q95 698 150 698 Q184 698 208 704 Q221 708 232 708 Q247 708 247 692 Q247 661 151 661 Q81 661 45 677 Q22 688 22 700 Q22 707 29 713 Z " />
<glyph glyph-name="afii10028" unicode="&#x41a;" horiz-adv-x="363" d="M5 587 Q19 603 31 589 Q40 579 53.5 523 Q67 467 71 426 Q74 395 77.5 388 Q81 381 97 379 Q101 378 107 378 Q115 378 151 405 Q185 431 242 488 Q290 537 311 554 Q332 571 345 571 L348 571 Q358 570 360.5 567.5 Q363 565 363 555 Q363 546 332 519 Q295 488 268 458 Q226 413 208 399 Q179 375 179 370 Q179 365 212 365 Q261 365 284 343 Q302 326 322 267 Q340 221 344 212 Q351 199 351 188 Q351 174 335 174 L330 174 Q312 177 285 254 Q271 292 263 305 Q255 318 243 322 Q228 326 179 328 Q132 330 105 336 Q82 341 79 340 Q76 338 76 243 Q76 148 72 138 Q67 125 57 125 Q50 125 44 131 Q38 137 37 156 Q36 175 36 278 Q36 390 32.5 424 Q29 458 10 531 Q0 570 0 577 Q0 582 5 587 Z " />
<glyph glyph-name="afii10029" unicode="&#x41b;" horiz-adv-x="361" d="M68 542 Q72 547 82 547 Q94 547 112 542 Q127 538 162 538 Q203 538 237 539 L341 542 L348 534 Q354 527 354 449 L354 331 L354 244 Q354 137 357 134 Q361 131 361 123 Q361 111 354 105 Q345 98 336 101 Q329 103 326.5 105.5 Q324 108 321.5 119 Q319 130 318.5 148.5 Q318 167 318 206 L318 313 L319 503 L215 501 Q190 501 164 500.5 Q138 500 124 500 L110 499 L111 493 Q112 487 114.5 471.5 Q117 456 119 446 Q130 386 130 332 Q130 240 106 192 Q88 154 49 151 L44 151 Q0 151 0 179 Q0 193 15 193 Q25 193 31 191 Q50 186 59 192 Q72 201 82.5 243.5 Q93 286 93 330 L93 344 Q91 391 78 458 Q66 527 66 534 Q66 538 68 542 Z " />
<glyph glyph-name="afii10030" unicode="&#x41c;" horiz-adv-x="405" d="M313 519 Q329 536 338 536 L341 536 Q357 535 362.5 505.5 Q368 476 372 373 Q380 177 399 148 Q410 131 399 120 Q393 113 386 113 Q370 113 360 142 Q337 206 335 384 Q335 466 326 470 Q324 471 319 465.5 Q314 460 309 451 Q299 434 253.5 338 Q208 242 208 238 Q208 232 197 224 Q186 216 178 216 Q162 216 145 239 Q128 262 92 335 Q49 420 45 420 Q42 420 42 316 Q42 123 28 109 Q16 97 5 110 Q0 115 0 129 Q0 130 2 170 Q5 221 5 312 Q5 403 2 457 Q0 499 0 500 Q0 515 7 522 Q15 530 20 530 Q33 530 62 477 Q90 427 126 352 Q167 268 173 268 Q179 268 224 364 Q260 439 276 467.5 Q292 496 313 519 Z " />
<glyph glyph-name="afii10031" unicode="&#x41d;" horiz-adv-x="236" d="M180 641 Q189 646 197 643 Q210 637 221 584 Q236 512 236 404 Q236 346 232 302 Q230 280 230 243 Q230 204 234 188 Q237 178 230 171 Q224 164 216 164 Q206 164 199 175 Q193 185 193 218 L193 265 L194 344 L135 342 Q75 340 74 339 Q71 338 71 238 Q71 169 72.5 153 Q74 137 79 132 Q86 125 86 117 Q86 110 79.5 102 Q73 94 66 94 Q61 94 53 98 Q41 105 38 128.5 Q35 152 34 267 Q33 383 29 423 Q25 463 9 535 Q0 572 0 585 Q0 592 3 596 Q8 603 17 604 Q26 605 30 600 Q33 595 45 547.5 Q57 500 61 473 Q66 439 67 413 L70 380 L99 379 Q125 379 163 381 L197 384 L198 408 L198 423 Q198 511 183 579 Q174 621 174 629 Q174 638 180 641 Z " />
<glyph glyph-name="afii10032" unicode="&#x41e;" horiz-adv-x="382" d="M198 576 Q176 581 159 581 Q133 581 113.5 573.5 Q94 566 94 555 Q94 550 87.5 545.5 Q81 541 73 541 Q65 541 58 513 Q37 435 37 343 Q37 302 43 281 Q68 194 158 188 L169 188 Q218 188 270 240 Q344 315 344 404 L344 441 L326 471 Q275 556 198 576 Z M99 609 Q117 616 139 616 L163 616 Q212 615 247.5 598 Q283 581 320 542 Q382 475 382 394 Q382 321 331 252 Q286 191 234 165 Q209 152 172 151 L156 151 Q130 151 112 158 Q11 191 1 316 Q0 322 0 340 Q0 424 15 496 Q25 546 25 548 Q25 555 38 570 Q51 585 64 593 Q73 598 99 609 Z " />
<glyph glyph-name="afii10033" unicode="&#x41f;" horiz-adv-x="269" d="M5 581 Q18 595 30 581 Q47 562 54 431 Q59 346 59 204 Q59 148 57 144 Q54 140 42 140 Q29 140 25 145 Q20 150 19 296 Q18 408 15.5 450.5 Q13 493 3 547 Q0 564 0 570 Q0 576 5 581 Z M19 631 Q23 635 34 635 Q44 635 53 632 Q88 618 162 614 Q215 611 234.5 604.5 Q254 598 263 581 Q269 570 269 529 L269 473 Q268 388 259 315 Q252 258 252 208 Q252 181 255 178 Q260 175 259 165.5 Q258 156 252 150 Q245 143 237 143 Q229 143 222 150 Q215 157 215 210 Q215 254 223 326 Q233 413 233 508 Q233 560 229 564 Q219 577 140 577 Q111 577 71 586 Q31 595 19 604 Q14 607 14 616.5 Q14 626 19 631 Z " />
<glyph glyph-name="afii10034" unicode="&#x420;" horiz-adv-x="301" d="M2 601 Q7 606 34 606 Q60 606 81 605 Q154 604 184 596 Q301 568 301 486 Q301 463 290 446 Q280 433 253 414.5 Q226 396 204 388 Q152 369 119 369 Q98 369 90 377 Q78 390 90 402 Q97 409 113 407 Q114 407 117 406.5 Q120 406 122 406 Q153 406 209 433 Q265 461 265 485 Q265 511 239 531 Q213 551 166 561 Q123 570 64 570 Q45 570 45 566 Q45 551 53 509 Q72 414 77 298 Q79 249 83 204 Q85 182 85 178 Q85 158 71 158 L66 158 Q53 159 49 175 Q45 191 42 255 Q38 348 33 393 Q28 438 12 518 Q-1 583 -1 592 Q-1 598 2 601 Z " />
<glyph glyph-name="afii10035" unicode="&#x421;" horiz-adv-x="384" d="M151 601 Q163 604 176 604 Q201 604 211 596 Q217 590 217 581 Q217 560 199 560 Q195 560 193 561 Q185 565 175 565 Q162 565 140 554 Q97 532 69 479.5 Q41 427 36 360 Q36 357 35.5 351.5 Q35 346 35 344 Q35 237 158 206 Q194 197 251 197 Q309 197 339 206 Q360 212 368 212 Q378 212 383 203 Q384 201 384 197 Q384 184 370 175 Q344 159 251 159 Q63 159 9 273 Q2 287 1 297.5 Q0 308 0 346 Q0 421 22 472 Q42 519 77.5 554.5 Q113 590 151 601 Z " />
<glyph glyph-name="afii10036" unicode="&#x422;" horiz-adv-x="480" d="M174 611 Q181 621 192 621 Q203 621 213 611 L221 601 L343 604 Q435 606 436 606 Q465 606 472 599 Q480 591 480 584 Q480 568 449 568 L440 568 L423 568 Q233 568 233 556 Q233 545 236 527 Q246 477 253 291 Q256 191 262 167 Q263 162 264 157 Q265 152 265.5 149 Q266 146 266 144 Q266 140 261 133 Q255 126 247 126 Q231 126 226 148 Q217 186 213 335 Q209 481 193 545 L188 564 L147 566 Q107 568 58 574.5 Q9 581 5 585 Q-8 594 6 610 Q13 617 27 617 Q35 617 72 612 Q116 605 138 604 Q156 602 158 602 Q168 602 174 611 Z " />
<glyph glyph-name="afii10037" unicode="&#x423;" horiz-adv-x="286" d="M241 640 Q252 649 259 649 Q266 649 276 641 Q286 633 286 616 L286 604 Q285 554 257 503 Q245 480 241.5 467 Q238 454 233 408 Q220 292 203.5 229.5 Q187 167 159 127 Q122 75 70 75 Q43 75 23.5 96 Q4 117 1 151 Q1 153 0.5 157 Q0 161 0 163 Q0 196 21 210 Q33 217 39 217 Q48 217 54 206 Q58 198 57 195.5 Q56 193 49 185 Q38 173 38 162 Q38 131 60 116 Q68 112 73 112 Q91 112 115 136 Q169 193 191 373 Q195 409 195 413 Q193 416 173 407 Q154 397 129 397 Q93 397 71 418 Q48 441 34 525 Q28 560 20 592 Q18 598 18 601 Q18 619 37 619 Q50 619 56 605 Q59 599 67 555 Q77 494 85 470 Q93 446 106 439 Q115 434 128 434 Q147 434 171 452 Q191 468 198 484 Q205 500 211 542 Q223 625 241 640 Z " />
<glyph glyph-name="afii10038" unicode="&#x424;" horiz-adv-x="454" d="M214 492 Q211 510 205 510 Q198 510 177 498 Q120 467 78 424.5 Q36 382 36 355 Q36 332 58.5 307 Q81 282 109 274 Q134 267 181 267 Q204 267 210 270 Q214 272 215 286.5 Q216 301 216 372 Q216 470 214 492 Z M319 527 Q293 535 288 535 Q280 535 276 529 Q272 523 261 521 L251 520 L252 403 Q252 286 256 282 Q258 281 259 281 Q279 281 335 310 Q418 354 418 417 Q418 436 409 454 Q399 476 373 497 Q347 518 319 527 Z M196 583 Q191 593 191 604 Q191 621 209 621 Q227 621 233 593 Q236 580 241.5 576.5 Q247 573 267 573 Q325 573 378.5 539 Q432 505 449 458 Q454 441 454 423 Q454 388 441 359 Q407 289 287 249 Q259 240 254 235 Q249 230 249 205 Q249 166 231 166 Q213 166 212 205 L210 230 L183 229 L166 229 Q53 229 10 311 Q1 329 1 346 L1 359 Q3 386 10 402 Q24 430 75.5 473.5 Q127 517 173 539 Q202 553 202 563 Q202 565 196 583 Z " />
<glyph glyph-name="afii10039" unicode="&#x425;" horiz-adv-x="399" d="M19 591 Q31 603 43 596 Q46 594 111 514 Q173 437 180 433 L181 432 L182 432 Q188 432 235 475 Q281 519 324.5 555.5 Q368 592 377 594 Q379 595 383 595 Q399 595 399 576 Q399 570 392 562.5 Q385 555 363 537 Q361 536 360 535 Q359 534 357 532 Q355 530 353 529 Q315 498 264 449.5 Q213 401 213 396 Q213 389 266.5 331.5 Q320 274 349 250 Q384 221 384 212 Q384 205 378.5 198.5 Q373 192 366 192 Q355 192 307 236.5 Q259 281 211 336 Q185 364 183 364 Q182 364 141 323 Q47 225 31 219 Q18 214 9 219 Q0 225 0 233 Q0 243 14 252 Q33 265 93 329 L158 397 L140 418 Q113 449 62 513.5 Q11 578 11 580 Q11 583 19 591 Z " />
<glyph glyph-name="afii10040" unicode="&#x426;" horiz-adv-x="340" d="M284 203 Q269 203 181.5 188.5 Q94 174 62 174 Q29 174 20 183 Q11 192 11 205 Q11 220 18 256 Q25 297 25 366 Q25 406 22 434 Q18 462 9 468 Q0 475 0 493 Q0 525 23 525 Q42 525 51 490.5 Q60 456 62 375 L62 338 Q62 287 57 257 Q53 234 53 218 Q53 210 66 210 Q77 210 145 221 Q159 223 196 229 Q233 235 242 237 L273 241 L275 267 Q276 275 279 298 Q282 321 282 324 Q286 360 286 449 Q286 542 292 550 Q298 558 308 558 Q319 558 325 549 Q331 540 326 526 Q323 513 321 414 Q319 308 316 278 Q314 264 314 249 Q314 239 322 227 Q340 199 340 159 Q340 128 332 115 Q323 102 314 102 L302 108 Q296 115 300 132 Q304 147 304 163 Q304 203 284 203 Z " />
<glyph glyph-name="afii10041" unicode="&#x427;" horiz-adv-x="326" d="M6 610 Q19 625 32 612 Q36 608 36 525 Q36 441 43 412 Q50 383 72 373 Q88 365 123 365 Q152 365 163 370 Q188 380 220.5 418.5 Q253 457 260 485 Q263 497 263 532 L263 555 L262 607 L272 611 Q278 613 280 613 Q296 613 300 565 Q303 534 308 522 Q312 514 313.5 327.5 Q315 141 321 137 Q326 132 326 124 Q326 113 319 106 Q314 101 305 101 Q292 101 284 112 Q277 122 277 167 Q277 175 277.5 208.5 Q278 242 278 269 L278 337 Q278 415 275 415 Q270 415 239 382 Q207 348 186 338 Q163 327 126 327 Q78 327 53 339 Q28 351 13 382 L2 406 L0 504 L0 551 Q0 604 6 610 Z " />
<glyph glyph-name="afii10042" unicode="&#x428;" horiz-adv-x="328" d="M283 595 Q296 603 310 592 Q321 584 324.5 573 Q328 562 328 533 Q328 528 327.5 516.5 Q327 505 327 498 Q324 396 302 322.5 Q280 249 247 232 Q237 227 226 227 Q196 227 183 247 Q176 259 169 256 Q167 256 167 253 Q167 247 156 232 Q145 217 137 212 Q127 205 103 205 Q84 205 71 210 Q38 224 25 270 Q13 308 5 459 Q0 547 0 554 Q0 569 5 574 Q18 588 30 574 Q35 569 41 468 Q47 363 52.5 324.5 Q58 286 69 264 Q80 241 103 241 Q107 241 117 245 Q123 248 131 264 Q137 276 146.5 308.5 Q156 341 156 349 Q156 356 162.5 362.5 Q169 369 177 369 Q194 369 197 327 Q198 302 206 284.5 Q214 267 223 267 Q242 267 255 303 Q270 342 281 407 Q292 472 292 519 Q292 557 284 565 Q277 571 277 582 Q277 592 283 595 Z " />
<glyph glyph-name="afii10043" unicode="&#x429;" horiz-adv-x="427" d="M370 577 Q383 592 396 578 Q402 571 402 445 Q402 321 404 305 Q406 291 417 286 Q427 282 427 271 Q427 260 416 252 Q409 247 407 242 Q405 237 405 223 Q405 201 400 189 Q391 169 374 169 Q350 169 345 201 Q343 216 339 216 Q336 216 323 207 Q306 197 282 197 Q260 197 244 205 Q214 220 204 260 Q199 278 195 278 Q191 278 185 257 Q164 184 117 184 Q113 184 103 186 Q47 197 27 274 Q19 304 11 371.5 Q3 439 1 487 Q0 504 0 525 Q0 549 5 557 Q11 566 21 566 Q28 566 33 561 Q38 556 38 542 Q38 540 37.5 532.5 Q37 525 37 520 L37 507 Q37 453 49 367 Q61 281 73 257 Q90 224 114 224 Q128 224 138 241 Q147 258 155 290 Q164 327 179 455 Q184 504 201 504 Q207 504 214 495 Q222 485 224 434 Q229 326 235 291 Q241 256 256 244 Q268 234 285 234 Q297 234 306 240 Q334 261 352 344 Q358 366 361 469 Q364 570 370 577 Z " />
<glyph glyph-name="afii10044" unicode="&#x42a;" horiz-adv-x="340" d="M8 561 Q13 565 28 565 Q30 565 37 564.5 Q44 564 49 564 Q82 562 91 553 L99 543 L96 437 Q93 350 93 284 L93 236 L160 236 Q272 236 294 258 Q303 267 303 282 Q303 315 270 339 Q254 349 224 349 Q203 349 194.5 346.5 Q186 344 163 333 Q138 320 132 320 Q128 320 124 324 Q116 332 116 338 Q116 355 159 374 Q183 386 218 387 L232 387 Q273 387 304 359 Q340 324 340 282 Q340 233 299 215.5 Q258 198 145 198 Q90 198 78.5 199 Q67 200 62 205 Q55 212 55 241 Q55 242 57 334 Q60 433 60 490 L60 524 L36 527 Q10 529 6 533 Q1 537 1 546 Q1 555 8 561 Z " />
<glyph glyph-name="afii10045" unicode="&#x42b;" horiz-adv-x="301" d="M117 332 Q108 343 96 343 Q88 343 81 339 Q72 334 63 333 Q53 331 49 316 Q47 304 47 277 L47 265 Q48 233 53.5 222.5 Q59 212 75 212 Q95 212 111 240 Q127 268 127 298 Q127 321 117 332 Z M6 588 Q13 595 20 595 Q37 595 49 554 Q55 531 56 457 Q58 382 59 381 Q60 380 74 382 Q88 384 116 411.5 Q144 439 171 476 Q198 514 211 527.5 Q224 541 235 541 Q239 541 245 539 Q255 535 257.5 513.5 Q260 492 262 395 Q264 286 268 259.5 Q272 233 289 219 Q302 209 302 201 Q302 196 296 190 Q290 183 281 183 Q268 183 254 197 Q236 215 230.5 249.5 Q225 284 225 378 L225 399 Q225 471 219 471 Q215 471 199 449 Q183 425 158 399 L133 373 L142 363 Q163 341 163 297 Q163 247 136 209 Q116 178 77 177 L65 177 Q50 177 39 184 Q25 194 18 209 Q9 226 9 263 Q9 288 16 362 Q21 412 21 448 Q21 517 10 547 Q8 552 4 561.5 Q0 571 0 575 Q0 582 6 588 Z " />
<glyph glyph-name="afii10046" unicode="&#x42c;" horiz-adv-x="207" d="M128 366 Q107 375 81 375 Q68 375 62 372 Q55 368 52.5 358.5 Q50 349 45 306 Q40 259 40 250 Q40 243 42 239 Q46 232 70 232 Q100 232 116 241 Q168 268 168 319 L168 328 Q167 336 155 348 Q143 360 128 366 Z M16 566 Q29 580 41 568 Q51 554 55 439 L56 415 L89 413 Q150 409 183 373 Q207 347 207 316 Q207 314 206.5 310 Q206 306 206 304 Q198 239 131 206 Q111 196 72 195 L61 195 Q36 195 25 199.5 Q14 204 5 218 Q0 226 0 235 Q0 241 5 283 Q13 343 13 358 Q17 412 17 431 Q17 457 14 496 Q11 536 11 547 Q11 559 16 566 Z " />
<glyph glyph-name="afii10047" unicode="&#x42d;" horiz-adv-x="359" d="M60 565 Q67 566 80 566 Q175 566 262 476 Q302 433 313 397 Q317 384 320.5 381 Q324 378 333 378 Q344 378 351.5 372.5 Q359 367 359 360 Q359 346 336 339 Q328 337 325.5 332.5 Q323 328 320 314 Q315 293 304 275 Q293 257 293 254 Q293 250 265 225.5 Q237 201 215 186 Q117 121 47 121 Q20 121 8 134 Q0 144 0 153 Q0 161 9.5 172.5 Q19 184 25 184 Q38 184 45 165 Q47 160 55 160 Q63 160 95 168 Q125 176 168 201.5 Q211 227 240 254 Q257 269 270 291.5 Q283 314 283 326 Q283 333 277 333 Q276 333 274 332 Q261 329 193 327 Q174 326 146 326 Q119 326 111 329.5 Q103 333 103 343 Q103 350 105 353.5 Q107 357 116.5 359.5 Q126 362 141 363 Q156 364 187 365 Q242 367 260 369.5 Q278 372 278 379 Q278 385 267 407 Q257 428 223 460 Q151 529 83 529 Q66 529 53 525 Q36 521 29 528 Q22 535 22 542 Q22 559 60 565 Z " />
<glyph glyph-name="afii10048" unicode="&#x42e;" horiz-adv-x="451" d="M405 436 Q393 460 368.5 480.5 Q344 501 318 505 Q309 507 304.5 505.5 Q300 504 291 495 Q280 484 280 473 Q280 458 277 449 Q269 422 269 370 Q269 343 271 334 Q277 303 292.5 286 Q308 269 329 269 Q340 269 351 273 Q379 283 397 317.5 Q415 352 415 390 Q415 416 405 436 Z M4 589 Q9 594 17 594.5 Q25 595 30 589 Q39 578 45 437 L46 414 L128 412 Q210 412 221 415 Q230 417 232 421 Q234 425 236 447 Q244 543 310 543 Q320 543 325 542 Q354 538 388.5 512 Q423 486 439 455 Q449 436 450 397 L450 387 Q450 307 401 262 Q370 232 330 232 Q288 232 262.5 261 Q237 290 232 345 L229 373 Q198 374 136.5 374 Q75 374 44 375 L44 332 Q44 286 40 219.5 Q36 153 33 149 Q30 144 18 144 Q8 144 4 150.5 Q0 157 0 178 Q0 196 3 237 Q7 300 7 392 Q7 459 4 492 Q0 550 0 560 Q0 581 4 589 Z " />
<glyph glyph-name="afii10049" unicode="&#x42f;" horiz-adv-x="251" d="M168 515 Q160 523 151 523 Q138 523 121 505 Q83 464 83 425 Q83 396 107 392 Q108 392 111 391.5 Q114 391 116 391 Q137 391 160 411 Q171 422 173.5 427 Q176 432 177 456 Q178 465 178 480 Q178 505 168 515 Z M118 552 Q130 559 151 559 Q170 559 180 553 Q188 548 199 548 Q210 548 215.5 536.5 Q221 525 226 492 Q241 399 241 284 Q241 195 245 179 Q251 157 251 150 Q251 145 245 139 Q238 134 233 134 Q220 134 213 149 Q208 160 206.5 208.5 Q205 257 204 299.5 Q203 342 199 342 Q195 342 185 321 Q174 299 137 253.5 Q100 208 62 171 Q22 132 16 132 Q14 132 10 134 Q0 140 0 149 Q0 169 44 207 Q63 223 96.5 262.5 Q130 302 145 326 Q157 344 157 355 Q157 360 153 360 L152 360 L150 359 Q146 357 120 355 L112 355 Q72 355 55 387 Q47 402 47 419 L47 432 Q48 459 61 485 Q72 505 88.5 525 Q105 545 118 552 Z " />
<glyph glyph-name="afii10065" unicode="&#x430;" horiz-adv-x="213" d="M30 341 Q52 352 88 352 Q124 352 142 343 Q160 335 179 317 Q198 299 205 284 Q212 270 212 247 Q212 221 203 203 Q194 185 170 161.5 Q146 138 129 131 Q111 123 90 123 Q72 123 60 130 Q37 145 37 177 Q37 194 44 208 Q54 229 84.5 250 Q115 271 134 271 Q143 271 149.5 265.5 Q156 260 156 253 Q156 249 153 245 Q147 235 129 230 Q106 222 90 205 Q74 188 74 175 Q74 161 92 161 Q116 161 146 190.5 Q176 220 176 244 Q176 275 141 299 Q120 313 96 314 L85 314 Q47 314 37 295 Q32 285 23 283 L22 283 Q14 283 7 290 Q0 297 0 306 Q0 327 30 341 Z " />
<glyph glyph-name="afii10066" unicode="&#x431;" horiz-adv-x="197" d="M128 490 Q143 499 159 499 Q188 499 188 476 Q188 466 181 461 Q174 454 162 459 Q152 463 140 456 Q98 428 66 363 Q33 296 33 247 Q33 225 41 207 Q58 170 94 170 Q103 170 107 171 Q125 175 144.5 200 Q164 225 164 244 Q164 256 153 263 Q142 270 125 270 Q109 270 93 262 Q79 255 73 255 Q67 255 60 262 Q54 268 59 277 Q66 289 85.5 296.5 Q105 304 128 304 Q140 304 151 301 Q167 297 183 283 Q193 274 195 269.5 Q197 265 197 253 L197 246 Q197 222 188 204 Q180 187 163 168.5 Q146 150 131 142 Q115 134 97 134 Q76 134 54 144 Q38 152 22.5 170 Q7 188 3 204 Q0 214 0 236 Q0 287 10 319 Q29 382 56 417 Q67 433 91 457 Q115 481 128 490 Z " />
<glyph glyph-name="afii10067" unicode="&#x432;" horiz-adv-x="159" d="M105 245 Q91 259 88 259 Q86 259 77 252 Q70 246 61 244.5 Q52 243 49 248 Q47 252 41 252 Q36 252 38 230 Q44 176 66 155 Q79 142 87 142 Q96 142 105 156 Q120 178 120 213 Q120 225 117.5 230.5 Q115 236 105 245 Z M105 469 Q99 483 95 483 Q90 483 80.5 467.5 Q71 452 64 433 Q54 408 45.5 362 Q37 316 37 290 Q37 274 41 274 Q50 274 69.5 303.5 Q89 333 101 364 Q111 390 111 427 Q111 454 105 469 Z M74 516 Q88 523 96 523 Q109 523 122 512 Q148 489 148 422 Q148 388 142.5 367.5 Q137 347 120 315 Q108 291 108 286 Q108 281 120 279 Q130 277 141.5 263.5 Q153 250 157 236 Q159 226 159 215 Q159 179 147 152 Q126 103 88 103 Q62 103 38.5 128 Q15 153 5 196 Q0 218 0 259 Q0 332 11 384 Q21 431 38.5 468 Q56 505 74 516 Z " />
<glyph glyph-name="afii10068" unicode="&#x433;" horiz-adv-x="343" d="M87 369 Q104 374 121 374 Q142 374 154 367 Q178 352 178 306 Q178 276 165 233 Q154 198 150 185 Q149 183 149 180 Q149 178 150 178 Q158 178 238 259 Q316 339 323 341 Q331 343 337 338.5 Q343 334 343 325 Q343 314 278 248 Q201 169 179.5 151.5 Q158 134 137 134 Q110 134 110 161 Q110 180 124 225 Q141 282 141 311 Q141 325 136 332 Q130 338 119 338 Q99 338 70 320 Q41 302 41 295 Q41 290 31.5 285 Q22 280 16 282 Q9 284 4 292 Q-2 301 5 312 Q14 326 40 344 Q66 362 87 369 Z " />
<glyph glyph-name="afii10069" unicode="&#x434;" horiz-adv-x="409" d="M184 39 Q187 47 182 47 Q176 47 158 15 Q140 -17 133 -40 Q132 -45 132.5 -46.5 Q133 -48 138 -47 Q146 -46 160 -19.5 Q174 7 184 39 Z M150 327 Q215 324 215 251 Q215 238 212.5 222.5 Q210 207 210 201 Q210 190 214 178 Q219 160 223 160 Q225 160 260 188 Q292 214 333.5 242 Q375 270 386 272 Q387 272 389 272.5 Q391 273 392 273 Q409 273 409 254 Q409 244 397 237 Q361 217 296.5 168 Q232 119 228 107 Q226 101 226 76 Q226 6 173 -68 Q159 -89 149 -96 Q139 -103 125 -103 Q110 -103 104 -94.5 Q98 -86 96 -65 L96 -58 Q96 8 173 103 Q187 120 187 128 Q187 133 186 136 Q182 149 178 149 Q176 149 157 136 Q132 119 105 119 Q103 119 98 119.5 Q93 120 90 120 Q66 121 51 132 Q0 167 0 241 Q0 285 18 294 Q27 299 34 292 Q39 287 39 275 Q39 264 38 255 Q38 252 37.5 246.5 Q37 241 37 239 Q37 198 64 171 Q78 158 97 157 L101 157 Q134 157 155 187 Q163 196 163 202 Q163 208 159 217 Q154 231 154 244 Q154 262 169 262 Q180 262 174 275 Q171 280 166 284 Q158 291 147 291 Q122 291 111 263 Q105 248 92 248 Q87 248 80 253 Q74 259 74 266 Q74 276 84 292 Q101 318 120 325 Q126 327 150 327 Z " />
<glyph glyph-name="afii10070" unicode="&#x435;" horiz-adv-x="364" d="M183 313 Q173 323 164 323 Q138 323 132 254 Q131 247 131 234 Q131 204 139 204 Q144 204 159.5 221 Q175 238 182 252 Q190 267 190 287 Q190 306 183 313 Z M134 352 Q145 360 163 360 Q179 360 192 353 Q228 334 228 290 L228 279 Q225 232 181 188 Q156 163 156 162 Q163 156 171 151 Q202 131 248 131 Q305 131 332 158 Q345 173 358 161 Q364 155 364 148 Q364 124 318 104 Q296 96 247 96 Q201 96 177 105 Q154 115 139 128 Q125 141 118 141 Q116 141 106 139 Q91 135 68 135 Q12 135 2 154 Q-2 164 5 171 Q12 179 30 176 Q49 173 70 173 Q94 173 98 177 Q102 181 98 195 Q95 208 95 236 Q95 273 99 292 Q110 336 134 352 Z " />
<glyph glyph-name="afii10072" unicode="&#x436;" horiz-adv-x="506" d="M11 388 Q17 391 28 389 Q50 385 77.5 362.5 Q105 340 115 320 Q122 304 128 304 Q133 304 139 321.5 Q145 339 145 353 Q145 387 164 387 Q169 387 177 381 Q183 376 184 364.5 Q185 353 185 297 Q185 206 194 206 L195 206 Q200 207 272 350 Q284 374 290 382 Q294 387 302 387 Q312 387 318 380 Q323 375 323 369 Q323 364 317 334 Q309 287 307 252 L304 209 L315 199 Q328 186 358 186 Q421 186 478 229 Q489 236 494 232 Q506 225 506 215 Q506 201 480 184 Q424 148 358 148 Q316 148 294 165 Q269 186 269 221 Q269 242 264 242 Q260 242 241 206 Q224 172 213 159.5 Q202 147 191 147 Q165 147 154 189 Q148 213 148 224 Q148 238 144 238 Q138 238 122 215 Q49 119 42 114 Q38 111 32 111 Q24 111 17.5 116.5 Q11 122 11 129 Q11 137 39 174 Q89 239 89 275 Q89 297 72 316 Q60 329 43.5 340 Q27 351 19 351 Q10 351 5 357 Q0 363 0 371 Q0 383 11 388 Z " />
<glyph glyph-name="afii10073" unicode="&#x437;" horiz-adv-x="287" d="M200 71 Q200 72 194 72 Q186 72 161 31.5 Q136 -9 132 -29 Q131 -32 131 -36 Q131 -41 135 -41 Q146 -41 172 1 Q180 14 190 39 Q200 64 200 71 Z M45 382 Q54 384 80 384 Q132 384 150 377 Q191 363 191 330 Q191 300 155 264 Q130 239 130 236 Q130 233 140 231 Q177 222 206 191 Q221 174 221 170 Q221 168 224.5 167.5 Q228 167 232.5 168.5 Q237 170 239 172 Q247 180 256 184 Q269 190 278 184 Q287 178 287 170 Q287 160 274 150 Q261 142 248 129 Q239 121 237.5 116 Q236 111 236 89 Q236 43 210 -8 Q169 -85 128 -85 Q114 -85 103 -73 Q94 -61 94 -47 L94 -35 Q98 22 170 107 Q192 134 192 141 Q192 148 178 163.5 Q164 179 152 185 Q133 194 106 199 Q72 205 63.5 208.5 Q55 212 50 220 Q46 227 46.5 229.5 Q47 232 54 237 Q71 251 90 262 Q115 278 133 296 Q151 314 151 324 Q151 346 86 346 Q47 346 36 337 Q26 328 18 328 Q10 328 4 337 Q0 342 0 349 Q0 372 45 382 Z " />
<glyph glyph-name="afii10074" unicode="&#x438;" horiz-adv-x="339" d="M135 388 Q145 398 159 388 Q165 384 166.5 375.5 Q168 367 168 332 Q168 245 188 208 Q202 182 230 175 Q241 172 250 172 L296 188 Q312 200 323 200 Q331 200 336 193 Q339 188 339 184 Q339 167 310.5 151 Q282 135 250 135 Q206 135 176.5 162 Q147 189 138 238 Q133 263 128 263 Q125 263 96 208 Q70 156 57 141 Q46 128 31 128 Q14 128 7 138 Q0 146 0 159 Q0 168 1 175 Q2 197 9 234 Q14 263 16 319 Q18 375 22 379 Q25 383 32 383 Q45 383 50 372 Q55 362 55 327 Q55 266 45 218 Q44 208 48 208 Q53 208 76.5 256 Q100 304 115 343 Q130 383 135 388 Z " />
<glyph glyph-name="afii10075" unicode="&#x439;" horiz-adv-x="312" d="M148 416 Q161 430 175 414 Q181 407 181 368 Q181 330 180 300 Q179 271 179 231 Q179 191 182.5 178 Q186 165 196 161 Q204 159 207 159 Q236 159 262 209 Q276 237 276 241 Q276 247 282 254 Q288 261 293 261 Q301 261 306.5 253.5 Q312 246 312 236 Q312 211 284 170 Q250 121 206 121 Q168 121 151 154 Q142 172 142 244 Q142 316 138 316 Q131 316 85 214 Q60 158 54 153 Q46 145 35 145 Q26 145 20 151 Q13 158 13 211 Q13 257 7 325 Q4 364 4 376 Q4 390 8 395 Q13 402 21.5 403 Q30 404 35 398 Q38 394 43.5 339 Q49 284 49 258 Q49 246 52 246 Q58 246 79 289 Q133 399 148 416 Z M4 523 Q8 530 14 530 Q19 530 49 522 Q70 516 116 516 Q162 516 189 522 Q205 526 211 526 Q216 526 222 520 Q227 515 227 508 Q227 494 208 488 Q176 478 121 478 Q106 478 80 480 Q0 488 0 512 Q0 515 4 523 Z " />
<glyph glyph-name="afii10076" unicode="&#x43a;" horiz-adv-x="179" d="M5 483 Q13 487 15 487 Q29 487 41 445 Q46 428 54 387 Q62 346 62 338 Q62 329 75 341 Q77 343 79 346 Q110 388 136 441 Q155 477 164 477 Q171 477 176 469.5 Q181 462 179 454 Q176 440 139.5 378 Q103 316 95 311 Q90 308 92 302 Q94 296 101 292 Q135 272 144 199 Q148 168 151 154 Q155 138 149 131 Q143 125 136 125 Q126 125 121.5 135.5 Q117 146 113 178 Q104 246 84 261 Q77 266 75 266 Q66 266 65 196 Q64 133 59 127 Q55 122 46 122 Q37 122 34 126 Q31 129 31 230 Q31 310 27.5 342.5 Q24 375 9 430 Q0 466 0 473 Q0 480 5 483 Z " />
<glyph glyph-name="afii10077" unicode="&#x43b;" horiz-adv-x="328" d="M155 422 Q158 426 167 426.5 Q176 427 179 423 Q182 420 184 369 Q187 255 219 191 Q240 147 270 147 Q284 147 297 159 Q308 170 318 170 Q328 170 328 155 Q328 138 310 126.5 Q292 115 269 115 Q249 115 234 124 Q206 141 189 176 Q168 217 162 266 Q160 281 157 281 Q154 281 135 244 Q93 160 48 127 Q31 114 18 114 Q10 114 5 119 Q0 124 0 129 Q0 141 18 146 Q26 148 45.5 167 Q65 186 76 203 Q130 285 147 389 Q153 420 155 422 Z " />
<glyph glyph-name="afii10078" unicode="&#x43c;" horiz-adv-x="419" d="M73 342 Q76 347 84 347 Q96 347 103 338 Q111 325 117 292 Q130 225 144 220 L146 220 Q158 220 199 277 Q243 339 257 339 Q268 339 272 329 Q276 319 278 290 Q282 217 306 185 Q323 164 349 164 Q366 164 380 175 Q391 185 404 185 Q419 185 419 171 Q419 161 411 152 Q390 125 348 125 Q324 125 307 135 Q261 158 246 238 Q241 259 238 259 Q233 259 219 238 Q204 216 185 199.5 Q166 183 153 181 Q149 180 143 180 Q125 180 108 200 Q95 215 92 215 Q89 215 82 197 Q77 182 63 160 Q49 138 41 130 Q34 123 19 125 Q6 126 2 136 Q-2 147 13 160 Q58 201 67 308 Q69 336 73 342 Z " />
<glyph glyph-name="afii10079" unicode="&#x43d;" horiz-adv-x="175" d="M115 358 Q115 364 120 371 Q125 378 132 378 Q146 378 153 345.5 Q160 313 167 217 Q168 197 170 175.5 Q172 154 173 142 Q174 130 174 126 Q174 109 157 109 L153 109 Q142 112 137 128 Q132 144 130 188 Q127 240 122 240 L120 240 Q50 233 44 229 Q42 228 42 177 L42 158 Q42 130 38.5 122.5 Q35 115 23 115 Q11 115 7.5 124 Q4 133 4 173 L4 209 Q4 296 1 314 Q0 319 0 329 Q0 352 17 352 Q28 352 33 342.5 Q38 333 40 307 Q43 276 48 273 L50 272 Q53 272 55 272 Q74 272 98 276 Q122 280 122 286 Q122 300 119 324 Q118 331 117 339 Q116 347 115.5 351 Q115 355 115 358 Z " />
<glyph glyph-name="afii10080" unicode="&#x43e;" horiz-adv-x="242" d="M68 286 Q67 293 63 293 Q57 293 51 274 Q38 229 38 192 Q38 168 46 160 Q57 149 81 149 Q94 149 100 151 Q114 155 131 169.5 Q148 184 155 198 Q170 228 170 256 Q170 257 170 258 L169 260 Q167 265 129 265 Q74 265 68 286 Z M140 306 Q140 311 129 311 Q118 311 118 306 Q118 300 129 300 Q140 300 140 306 Z M54 346 Q65 350 67 350 Q69 350 80 345 Q93 339 99 343 Q110 350 135 350 Q144 350 154 348 Q168 345 182 331 L195 319 L211 325 Q224 330 227 329.5 Q230 329 235 322 Q242 313 242 309 Q242 298 217 285 Q209 281 207.5 277 Q206 273 206 256 Q206 197 172.5 156 Q139 115 89 111 L79 111 Q26 111 6 148 Q0 158 0 186 Q0 260 24 311 Q36 338 54 346 Z " />
<glyph glyph-name="afii10081" unicode="&#x43f;" horiz-adv-x="304" d="M59 322 Q90 348 123 348 Q138 348 151 341 Q175 327 198 276 Q229 203 269 203 Q270 203 273 203.5 Q276 204 277 204 Q278 204 279.5 204.5 Q281 205 282 205 Q303 205 303 188 Q303 180 299 175 Q294 168 271 168 Q237 168 215.5 185.5 Q194 203 169 252 Q151 287 141 300 Q131 313 120 313 Q114 313 102 308 Q91 303 74.5 286 Q58 269 56 260 L56 253 Q56 244 58 218 Q62 187 62 153 Q62 128 59 122 Q56 116 45 116 Q36 116 30 122 Q18 134 13 228 Q10 280 5 296 Q0 311 0 318 Q0 329 6 335 Q12 341 17 341 Q31 341 36 319 Q38 310 42 310 Q46 310 59 322 Z " />
<glyph glyph-name="afii10082" unicode="&#x440;" horiz-adv-x="343" d="M64 246 Q66 249 69 255.5 Q72 262 73.5 264 Q75 266 77.5 269 Q80 272 83 273 Q86 274 90 274 L91 274 Q96 274 102.5 263.5 Q109 253 109 245 Q109 235 115 235 Q123 235 134 243 Q159 260 194 260 Q215 260 229 252 Q255 235 270 174 Q280 131 290 131 Q295 131 307 141 Q318 150 324 150 Q330 150 336 144 Q343 137 343 132 Q343 124 331 112 Q312 93 290 93 Q282 93 273 96 Q257 101 249 114.5 Q241 128 234 159 Q226 195 217 209 Q208 223 193 223 Q186 223 176 220 Q147 212 125 184 L115 171 L122 92 Q127 39 134 -71 Q140 -156 148 -173 Q157 -191 157 -199 Q157 -206 150 -213 Q145 -218 138 -218 Q127 -218 118.5 -204 Q110 -190 108 -168 Q106 -145 102 -136 Q98 -129 93 -32 Q88 62 82 119 Q77 169 77 177 Q77 180 75 180 Q69 180 48 157 Q26 135 21 135 Q17 135 8.5 142 Q0 149 0 153 Q0 156 26 189 Q53 223 64 246 Z " />
<glyph glyph-name="afii10083" unicode="&#x441;" horiz-adv-x="184" d="M55 352 Q69 358 74 358 Q80 358 88 350.5 Q96 343 96 337 Q96 332 88 324 Q80 316 75 316 Q65 316 52.5 286 Q40 256 40 233 Q40 231 40.5 228.5 Q41 226 41 225 Q47 198 85 198 L93 198 Q119 199 142 214 Q163 226 166 226 Q167 226 175 222 Q185 216 185 207 Q185 186 142 167 Q122 157 90 157 Q64 157 46 164 Q29 170 16.5 183.5 Q4 197 2 211 Q0 225 0 233 Q0 269 16.5 305 Q33 341 55 352 Z " />
<glyph glyph-name="afii10084" unicode="&#x442;" horiz-adv-x="388" d="M39 345 Q47 352 61 352 Q73 352 81 345 Q89 338 101 317 Q112 297 116 297 Q121 297 121 300 Q121 303 134 316 Q148 330 163 330 Q191 330 202 298 Q205 286 209 286 Q211 286 226 301 Q239 315 252 315 Q270 315 281 296.5 Q292 278 302 233 Q314 176 327 176 Q331 176 348 193 Q364 209 371 209 Q376 209 382 203 Q388 197 388 191 Q388 181 371 162 Q348 137 327 137 Q322 137 319 138 Q299 142 287 163 Q275 184 264 229 Q256 264 250 264 Q245 264 234 238 Q223 210 223 180 Q223 145 217 139 Q205 125 190 138 Q183 145 183 184 Q183 219 177 252 Q171 285 161 285 Q152 285 142 258 Q135 240 132 181 Q130 126 123 118 Q111 104 98 116 Q92 122 92 166 Q92 231 74 282 Q66 303 60 303 Q55 303 47 289 Q32 260 18 260 Q0 260 0 276 Q0 284 15.5 311.5 Q31 339 39 345 Z " />
<glyph glyph-name="afii10085" unicode="&#x443;" horiz-adv-x="252" d="M99 32 Q99 43 92 37 Q87 33 85 24 Q81 12 81 -1 Q81 -9 84 -9 Q87 -9 93 7.5 Q99 24 99 32 Z M6 277 Q16 289 30 277 Q37 271 37 226 Q37 179 40 173 Q44 166 51 166 Q68 166 81 192 Q85 200 85 232 Q86 264 93 272 Q99 279 107 279 Q115 279 123 271 Q132 262 132 241 Q132 228 129 212 Q128 207 128 196 Q128 177 133 177 Q136 177 166 203 Q219 251 234 251 Q239 251 247 243 Q252 238 252 233 Q252 222 228 205 Q210 193 171 156 L136 121 L135 60 Q134 12 130.5 -3 Q127 -18 111 -43 Q96 -67 73 -67 Q72 -67 70.5 -66.5 Q69 -66 68 -66 Q41 -60 41 -17 Q41 17 59 62 Q72 92 82 108 Q95 128 95 132 Q95 136 88 137 Q81 138 79 134 Q77 130 54 130 Q32 130 21 138 Q8 148 4 163 Q0 178 0 220 Q0 271 6 277 Z " />
<glyph glyph-name="afii10086" unicode="&#x444;" horiz-adv-x="239" d="M99 223 Q98 232 98 248.5 Q98 265 97 273 L82 274 L80 274 Q67 274 54 265.5 Q41 257 41 249 Q41 232 84 225 L99 223 Z M183 300 Q169 308 150 308 Q141 308 138 305 Q136 303 136 278 Q136 250 138 240 Q140 230 142.5 227.5 Q145 225 152 226 Q171 227 186 242.5 Q201 258 201 276 Q201 292 183 300 Z M87 351 Q84 366 84 376 Q84 392 98 392 Q117 392 123 363 L127 347 L156 344 Q199 341 219 325 Q239 309 239 277 Q239 242 217 219 Q195 196 161 189 L141 185 L138 110 Q135 36 128 28 Q120 22 111 25 L101 28 L101 185 L90 186 Q53 189 26.5 206 Q0 223 0 244 Q0 267 19.5 287 Q39 307 67 312 Q69 313 74 314 Q90 321 91 327 Q91 329 87 351 Z " />
<glyph glyph-name="afii10087" unicode="&#x445;" horiz-adv-x="274" d="M37 294 Q40 299 53 299 Q71 299 117 258 Q133 244 136 244 Q139 244 159 262 Q178 280 188 280 Q195 280 199 273 Q204 267 204 261 Q204 252 188 236 L171 218 L179 211 Q182 208 231 183 Q273 163 274 152 Q275 143 266 136 Q259 131 255 131 Q252 131 231 139 Q210 147 171 171 Q136 193 132 193 Q128 193 112 185 Q53 158 22 158 Q0 158 0 173 Q0 190 35 198 Q94 212 94 221 Q94 226 75.5 242 Q57 258 46 263 Q33 270 33 283 Q33 290 37 294 Z " />
<glyph glyph-name="afii10088" unicode="&#x446;" horiz-adv-x="262" d="M14 311 Q26 324 40 310 Q51 299 51 264 Q51 238 45 200 Q40 162 40 150 Q40 144 41 143 L43 143 Q53 143 95.5 156.5 Q138 170 146 176 Q150 179 150 189 Q150 216 131 263 Q123 284 123 288 Q123 291 125 295 Q130 306 142 306 Q149 306 154 301 Q159 296 171 262.5 Q183 229 183 219 Q183 211 188 206 Q191 202 194.5 202.5 Q198 203 213 211 Q233 222 243 222 Q252 222 258 213 Q262 205 262 203 Q262 193 236 180 Q216 171 203 158 Q194 150 192.5 145 Q191 140 191 125 Q191 99 179 81.5 Q167 64 152 64 Q141 64 132 74 Q124 83 125 103 Q125 105 125.5 108.5 Q126 112 126 113 Q126 123 119 123 Q112 123 89 114 Q61 104 41 104 Q19 104 9 114 Q0 123 0 144 Q0 162 6 195 Q10 219 10 248 L10 266 L10 285 Q10 306 14 311 Z " />
<glyph glyph-name="afii10089" unicode="&#x447;" horiz-adv-x="319" d="M48 337 Q54 340 99 340 Q206 340 227 333 Q239 329 244 318 Q245 316 245 312 Q245 305 232 280 Q202 224 202 189 Q202 162 227 162 Q252 162 281 191 Q296 206 306 206 Q319 206 319 186 Q319 176 300 157 Q266 126 228 126 Q194 126 175 148 Q165 160 165 185 Q165 227 185 270 Q194 292 194 296 Q194 301 144 301 Q92 301 90 298 Q88 294 94 281 Q100 268 100 241 Q100 214 93 189 Q73 126 36 126 Q35 126 33 126.5 Q31 127 29 127 Q17 129 8.5 139.5 Q0 150 0 161 Q0 173 9 179 Q18 185 30 178 Q34 175 36 174 Q38 173 40 173.5 Q42 174 43 175 Q44 176 46 179 Q63 202 63 239 Q63 255 47 288 Q35 314 35 322 Q35 330 48 337 Z " />
<glyph glyph-name="afii10090" unicode="&#x448;" horiz-adv-x="226" d="M196 316 Q200 321 209 322 Q218 323 222 318 Q226 314 226 301 Q226 282 219 255 Q204 194 173 165 Q158 151 145 151 L134 151 Q114 152 102 163 Q94 171 91 171 Q86 171 78 150 Q66 116 42 116 Q36 116 28 119 Q14 127 9.5 145 Q5 163 2 219 Q0 244 0 270 Q0 289 5 294 Q12 301 22 301 Q32 301 36 294 Q39 288 39 239 Q39 191 45 191 Q52 191 57 237 Q59 266 69 271 Q76 275 79 274.5 Q82 274 88 268 Q95 261 103 237 Q118 188 136 188 Q140 188 145 191 Q154 195 167 224 Q180 253 185 279 Q190 308 196 316 Z " />
<glyph glyph-name="afii10091" unicode="&#x449;" horiz-adv-x="359" d="M210 296 Q210 327 218 333 Q226 339 229.5 338.5 Q233 338 240 331 Q247 324 257 287 Q266 251 270 251 Q273 251 281 259 Q289 268 310.5 281.5 Q332 295 338 295 Q345 295 352 289 Q359 283 359 276 Q359 269 342 257 Q303 230 286 203 Q277 189 274.5 180 Q272 171 271 143 Q268 100 262 91 Q254 80 244 80 Q235 80 228 89 Q221 97 221 116 L221 130 Q221 133 221.5 138 Q222 143 222 145 Q222 160 218 160 Q214 160 210 154 Q205 149 191 149 Q176 149 166 160 Q148 178 148 164 Q148 153 141 134.5 Q134 116 127 110 Q119 101 104 103 Q72 108 49 146.5 Q26 185 15 231 Q0 295 0 303 Q0 308 3 313 Q8 324 19 324 Q26 324 31 319 Q37 313 39 297 Q46 248 66.5 197 Q87 146 100 146 Q102 146 103 147 Q109 151 118 227 Q123 269 128.5 282 Q134 295 146 295 Q158 295 164 283 Q170 271 179 228 Q185 200 189 200 Q195 200 202.5 234.5 Q210 269 210 296 Z " />
<glyph glyph-name="afii10092" unicode="&#x44a;" horiz-adv-x="208" d="M167 223 Q160 230 147 230 Q126 230 112 214 Q107 208 99.5 206.5 Q92 205 89 210 Q82 222 73 196 L72 193 Q66 172 67 170 Q70 165 85 165 Q122 165 149 182 Q170 195 170 215 Q170 220 167 223 Z M40 390 Q90 392 92 392 Q102 392 107 391 Q112 390 114.5 387.5 Q117 385 121 381 Q131 371 131 362 Q131 356 130 351 Q128 330 114 295 Q101 260 101 258 Q101 257 104 257 Q107 257 111.5 258.5 Q116 260 120 262 Q136 268 152 268 Q176 268 192 254 Q208 240 208 217 Q208 185 185 162 Q159 136 106 130 Q86 128 80 128 Q52 128 37 143 Q30 150 30 163 L30 177 Q31 201 57 261 Q90 338 90 345 Q90 347 89 348 Q88 352 48 352 Q17 352 8.5 355.5 Q0 359 0 371 Q0 382 7.5 385.5 Q15 389 40 390 Z " />
<glyph glyph-name="afii10093" unicode="&#x44b;" horiz-adv-x="370" d="M72 257 Q60 266 57 263 Q56 262 56 256 Q56 238 61 201.5 Q66 165 70 160 Q73 156 76 156 Q83 156 88.5 171 Q94 186 94 207 Q94 239 72 257 Z M5 403 Q12 412 21 410 Q32 408 38 395 Q44 382 48 350 Q52 320 53.5 315 Q55 310 62 309 L64 309 Q84 309 161 342 Q201 359 215 359 Q225 359 231 352 Q237 346 237 332 Q237 330 235 302 Q235 292 233 266 Q231 240 231 232 Q231 206 240 199 Q248 192 266 192 Q299 192 331 214 Q349 225 359 224 Q367 223 368.5 221 Q370 219 370 208 Q370 198 367.5 194.5 Q365 191 352 182 Q310 154 268 154 Q223 154 205 182 Q198 193 196.5 201 Q195 209 195 235 Q195 271 197 293 Q200 312 196 312 Q191 312 152.5 297 Q114 282 111 279 Q108 276 113 269 Q133 246 133 205 Q133 162 111 135 Q98 119 76 119 Q48 119 36 143 Q25 165 16 281 Q9 364 2 384 Q-1 395 5 403 Z " />
<glyph glyph-name="afii10094" unicode="&#x44c;" horiz-adv-x="162" d="M118 252 Q110 258 106 258 Q99 258 80 250.5 Q61 243 53 237 Q42 230 42 218 L42 207 Q43 188 48.5 181 Q54 174 66 174 Q82 174 99.5 194 Q117 214 123 237 Q125 247 118 252 Z M4 425 Q13 439 29 428 Q36 422 37.5 351.5 Q39 281 42 279 Q43 277 60 284 Q78 293 107 293 Q131 293 141 286 Q162 271 162 244 Q162 205 124 165 Q93 134 63 134 Q38 134 21 153 Q10 166 7 188.5 Q4 211 2 302 Q0 378 0 384 Q0 417 4 425 Z " />
<glyph glyph-name="afii10095" unicode="&#x44d;" horiz-adv-x="270" d="M31 379 Q36 386 51 386 L69 386 Q101 385 119 375 Q161 354 181 319 Q190 304 197 304 Q200 304 209 306.5 Q218 309 227 310 Q243 312 248 312 Q270 312 270 296 Q270 273 240 273 Q229 273 209 269 Q197 266 193.5 263.5 Q190 261 189 253 Q184 228 159 193.5 Q134 159 109 142 Q89 129 61 128 L32 127 L18 141 Q0 159 0 181 Q0 202 15 206 L17 206 Q18 207 19 207 Q33 207 38 185 Q40 173 44 169 Q47 164 56 164 Q78 164 103 186 Q115 198 130.5 220 Q146 242 146 249 Q146 254 143 255 Q140 256 127 254 Q99 251 83 248 Q67 246 63 246 Q48 246 48 259 Q48 275 57.5 280 Q67 285 102 289 Q144 293 144 303 Q144 306 141 310 Q130 326 107 338 Q84 350 64 350 Q62 350 60 349.5 Q58 349 57 349 Q40 346 32 354 Q21 365 31 379 Z " />
<glyph glyph-name="afii10096" unicode="&#x44e;" horiz-adv-x="357" d="M309 348 Q297 355 286 355 Q252 355 226 315 Q220 305 220 283 L220 264 Q221 230 225.5 217.5 Q230 205 241 203 L242 203 Q261 203 289 245.5 Q317 288 319 321 L319 332 Q319 342 309 348 Z M6 411 Q18 417 27 408 Q35 400 47 307 L49 291 L98 286 Q123 283 141 283 Q171 283 180 294 Q184 298 186 320 Q187 349 202 354 Q209 356 227 370 Q255 390 289 390 Q328 390 345 365 Q357 349 357 328 Q357 298 332 249 Q311 209 291 190 Q265 165 239 165 Q202 165 190 212 Q182 242 177 245 Q171 249 127 250 Q69 252 62 252 L50 253 L49 190 L47 128 L37 123 Q28 118 21 124 Q13 133 12 225 Q11 319 5 350 Q0 383 0 393 Q0 406 6 411 Z " />
<glyph glyph-name="afii10097" unicode="&#x44f;" horiz-adv-x="346" d="M160 364 Q160 367 153 374 Q146 381 138 381 Q122 381 108 354 Q99 336 99 328 Q99 321 105 321 Q118 321 143 344 Q160 359 160 364 Z M123 419 Q128 420 137 420 Q164 420 193 391 L209 375 L204 344 Q200 319 200 273 Q200 227 204 214 Q217 173 248 173 Q281 173 308 202 Q318 213 330 213 Q346 213 346 196 Q346 192 345 189 Q343 180 327.5 166.5 Q312 153 295 145 Q276 136 246 136 Q227 136 214 141 Q201 146 187.5 163 Q174 180 169 199 Q162 221 158 221 Q155 221 142 202 Q131 185 107.5 163 Q84 141 70 134 Q52 126 30 126 Q13 126 7 132 Q0 139 0 147 Q0 155 6 160 Q12 165 21 165 L26 165 Q27 165 29 164.5 Q31 164 32 164 Q52 164 81 191 Q100 209 122.5 243 Q145 277 145 287 Q145 289 144 289 Q142 291 130 287 Q121 283 100 283 Q82 283 72 294 Q62 304 62 313 Q62 322 63 329 Q65 360 84 388 Q103 416 123 419 Z " />
<glyph glyph-name="afii10071" unicode="&#x451;" horiz-adv-x="308" d="M166 311 Q168 311 170 311.5 Q172 312 174 312 Q188 312 201 304 Q215 296 215 274 Q215 250 199 221 Q186 196 188 194 Q190 192 210 190 L216 190 Q252 190 272 221 Q282 237 294 237 Q308 237 308 215 Q308 201 295.5 187 Q283 173 262 163 Q241 152 214 152 Q189 152 173 160 L155 167 L132 154 Q76 123 36 123 Q0 123 0 143 Q0 162 34 162 Q73 162 118 191 L132 200 L132 230 Q132 260 136 274 Q140 287 149 298.5 Q158 310 166 311 Z M92 377 Q100 383 111 383 Q121 383 124 378 Q128 374 128 367 Q128 358 121.5 350.5 Q115 343 106 343 Q100 343 96 346 Q85 352 85 363 Q85 371 92 377 Z M221 392 Q229 398 231 398 Q236 398 242.5 390.5 Q249 383 249 378 Q249 361 231 361 Q213 361 213 377 Q213 387 221 392 Z " />
<glyph glyph-name="uni1e9e" unicode="&#x1e9e;" horiz-adv-x="279" d="M85 435 Q94 438 109 438 Q133 438 143 431 Q164 418 164 384 L164 372 Q162 346 160 332 L158 320 L181 318 Q216 314 242.5 298 Q269 282 276 262 Q279 253 279 242 Q279 202 242 167 Q205 132 157 129 L147 129 Q111 129 101 153 Q98 160 98 170 Q98 205 126 218 Q138 223 146 218 Q154 213 154 205 Q154 196 145 187 Q137 177 137 173 Q137 165 150 165 Q151 165 153 165.5 Q155 166 157 166 Q181 170 204.5 187 Q228 204 237 224 Q242 236 242 242 Q242 257 220 267 Q193 281 165 281 Q147 281 123 275 Q113 273 110 273 Q95 273 91 286 L90 287 Q90 288 90 289 Q90 298 103 315 Q129 352 129 375 Q129 389 125 394.5 Q121 400 110 400 Q92 400 73.5 381 Q55 362 44 332 Q37 314 37 274 Q37 244 41 223 Q53 157 84 58 Q93 29 93 19 Q93 9 87 1.5 Q81 -6 73 -6 L72 -6 Q64 -5 60.5 0.5 Q57 6 52 28 Q42 67 29 112 Q0 220 0 281 Q0 324 8 345 Q36 417 85 435 Z " />
<glyph glyph-name="zero" unicode="0" horiz-adv-x="277" d="M177 410 Q169 426 161 429 Q154 431 140 417 Q123 403 112 402 Q102 401 99.5 398 Q97 395 92 380 Q83 351 83 288 Q83 235 90 214 Q103 173 134 167 Q149 165 159 176 Q174 193 182.5 234.5 Q191 276 191 321 Q191 382 177 410 Z M110 445 Q116 441 130 451 Q144 461 160 461 Q190 461 207 423 Q223 387 223 321 Q223 206 187 159 Q169 136 145 136 L135 136 Q91 139 71 177 Q51 215 51 296 Q51 396 81 438 Q89 449 100 449 Q106 449 110 445 Z " />
<glyph glyph-name="one" unicode="1" horiz-adv-x="232" d="M106 477 Q128 492 140 492 Q149 492 153 484 Q167 460 176 367 Q180 313 180 246 Q180 169 176 159 Q171 151 163 151 Q153 151 148 161 Q145 168 145 263 Q145 336 139.5 390.5 Q134 445 127 445 Q120 445 102 435 Q83 425 73 425 Q64 425 58 432 Q54 436 54 442 Q54 454 71 459 Q83 461 106 477 Z " />
<glyph glyph-name="two" unicode="2" horiz-adv-x="348" d="M73 485 Q85 493 108 493 Q140 493 159 476 Q187 449 187 404 Q187 327 116 208 Q104 188 104 182 Q104 178 109 178 L113 178 Q148 186 231 190 Q238 190 247.5 190.5 Q257 191 262 191.5 Q267 192 271 192 Q285 192 288 187 Q294 180 292 173 Q289 156 233 156 Q198 156 154 150 Q110 144 87 144 Q64 144 58 151 Q54 155 54 160 Q54 170 78 209 Q152 334 152 404 Q152 440 131 455 Q122 461 111 461 Q98 461 90 453 Q82 445 76 445 Q70 445 65 451 Q60 457 60 466 Q60 477 73 485 Z " />
<glyph glyph-name="three" unicode="3" horiz-adv-x="287" d="M103 480 Q100 486 103 493 Q106 500 136 500 Q182 500 208 484.5 Q234 469 234 443 Q234 414 200 380 Q179 359 179 356 Q179 352 193 345 Q230 326 230 287 L230 278 Q229 252 218 235 Q206 214 180.5 188 Q155 162 134 148 Q102 126 76 126 Q57 126 57 140 Q57 155 79 155 Q105 155 156 204 Q206 254 206 285 Q206 319 150 331 Q117 338 117 350 Q117 359 136 368 Q166 384 186.5 406 Q207 428 207 443 Q207 446 205 450 Q194 470 138 473 Q107 474 103 480 Z " />
<glyph glyph-name="four" unicode="4" horiz-adv-x="276" d="M113 468 Q113 477 113.5 480.5 Q114 484 116 487 Q118 490 123 490 Q124 490 125.5 489.5 Q127 489 129 489 L139 488 L139 460 Q139 436 133 418.5 Q127 401 108 370 Q93 344 93 341 Q93 334 133 334 L143 334 Q154 335 155 339 Q156 341 156 344 Q156 350 153 376 Q151 392 152 396.5 Q153 401 158 403 Q161 405 166 405 Q176 405 183 370 Q187 347 189 342.5 Q191 338 199 337 Q221 332 221 320 Q221 306 200 302 Q193 301 191.5 295 Q190 289 189 252 Q185 162 176 137 Q173 129 164 129 Q150 129 150 147 Q150 156 153 173 Q161 226 161 269 Q161 292 158 296 Q154 303 118 306 Q87 309 76 312.5 Q65 316 59 325 Q53 334 62 351 Q68 361 86 391 Q113 434 113 468 Z " />
<glyph glyph-name="five" unicode="5" horiz-adv-x="315" d="M127 504 Q156 514 169 514 Q178 514 183 508 Q185 504 185 502 Q185 493 135 477 Q90 462 88 460 Q87 459 87 452 Q87 447 89 423 L100 329 Q102 328 129 333 Q148 337 169 337 Q200 337 217 328 Q237 318 248.5 299 Q260 280 260 259 Q260 244 254 232 Q229 186 150 153 Q119 141 94 140 Q91 140 85.5 139.5 Q80 139 78 139 Q53 139 53 153 Q53 166 82 166 Q123 166 175 195.5 Q227 225 233 251 Q234 254 234 261 Q234 282 217 296.5 Q200 311 173 311 Q136 311 110 296 Q96 288 90 288 Q81 288 78 297.5 Q75 307 72 330 Q60 446 60 461 Q60 464 60.5 467 Q61 470 61 471 Q63 482 127 504 Z " />
<glyph glyph-name="six" unicode="6" horiz-adv-x="266" d="M125 505 Q138 510 145 503 Q149 499 149.5 490.5 Q150 482 146 480 Q134 473 108 396.5 Q82 320 84 300 Q84 294 82.5 283.5 Q81 273 81 265 L81 255 Q83 224 95.5 206.5 Q108 189 125 189 Q151 189 170 228 Q181 250 181 264 Q181 278 171 286 Q160 295 148 295 Q136 295 123 284 Q110 273 104 273 Q98 273 93 281 Q88 288 96 300 Q112 324 148 324 Q184 324 203 298 Q211 287 211 266 Q211 241 198 213 Q171 157 125 157 Q86 157 63 201 Q51 223 51 264 Q51 324 77 402 Q88 437 103.5 470 Q119 503 125 505 Z " />
<glyph glyph-name="seven" unicode="7" horiz-adv-x="278" d="M60 498 Q67 505 89 497 Q104 491 158 490 Q199 489 211.5 486.5 Q224 484 224 473 Q224 467 217 446 Q207 416 134 242 Q128 228 119.5 207 Q111 186 107 176 Q103 166 102 164 Q99 156 90 156 Q76 156 76 170 Q76 176 103 241 Q167 391 188 447 Q192 456 190 459 Q188 462 141 464 Q76 467 62 479 Q51 489 60 498 Z " />
<glyph glyph-name="eight" unicode="8" horiz-adv-x="298" d="M175 282 Q148 300 146 300 Q143 300 123 275.5 Q103 251 97 240 Q89 224 89 216 Q89 198 134 198 Q155 198 161 200.5 Q167 203 182 219 Q203 239 203 252 Q203 260 198 265.5 Q193 271 175 282 Z M190 445 Q178 451 171 451 Q161 451 156 440 Q151 429 128 422 Q89 408 89 390 Q89 383 101 371 Q113 359 130 351 Q140 347 141 347 Q147 347 167 364 Q209 400 209 421 Q209 436 190 445 Z M125 480 Q131 489 142 489 Q144 489 162 487 Q234 480 243 431 Q244 427 244 419 Q244 391 209 356 Q182 329 182 325 Q182 322 205 306 Q240 280 240 254 Q240 229 213 199 Q193 177 177.5 170 Q162 163 131 163 Q70 163 57 193 Q53 201 53 213 Q53 245 92 293 L111 318 L99 327 Q52 362 52 393 Q52 401 53 405 Q55 416 71 431 Q87 446 103 452 Q119 457 119 464 Q119 472 125 480 Z " />
<glyph glyph-name="nine" unicode="9" horiz-adv-x="324" d="M231 473 Q218 478 208 467 Q195 453 184 464 Q179 469 169 460 Q160 452 160 432 Q160 416 165.5 411 Q171 406 188 406 Q202 406 206 411.5 Q210 417 210 435 Q210 456 217 460 Q221 462 225.5 461 Q230 460 233.5 460.5 Q237 461 237 465 Q237 471 231 473 Z M194 500 Q203 505 219 505 Q235 505 250 499.5 Q265 494 269 485 Q272 478 272 468 Q272 442 255 416 Q249 408 249 401 Q249 400 253 376 Q258 349 258 308 Q258 269 248 247 Q237 225 217 203 Q200 185 165.5 161.5 Q131 138 115 133 Q102 129 88 129 Q56 129 56 154 Q56 174 69 174 Q75 174 81 168 Q87 162 91 161.5 Q95 161 108 165 Q127 171 138 178 Q149 185 175 209 Q204 236 215.5 257.5 Q227 279 227 311 Q227 328 224 354 L221 377 L200 376 L189 376 Q171 376 166 377 Q153 379 141.5 391 Q130 403 128 417 Q128 418 127.5 422 Q127 426 127 428 Q127 465 142 482 Q150 491 167 489 Q183 487 183 490 Q183 494 194 500 Z " />
</font>
</svg>
